<svg width="185" height="173" viewBox="0 0 185 173" fill="none" xmlns="http://www.w3.org/2000/svg">
<g clip-path="url(#clip0_22_324)">
<path d="M92.8556 26.8351C67.641 32.1599 71.3975 61.5974 28.0057 78.1143C-18.5182 95.822 9.66033 162.619 62.5923 166.417C115.289 170.201 146.844 146.443 152.277 101.31C156.322 67.3975 130.324 18.9224 92.8556 26.8351Z" fill="#ECF2FA"/>
<path d="M34.1063 70.8834C45.4142 66.999 62.5538 48.8497 56.3571 28.5205C50.1603 8.19123 0.706217 82.3492 34.1063 70.8834Z" fill="#ECF2FA"/>
<path d="M132.366 166.48H109.789L101.584 123.829C101.275 122.225 101.325 120.573 101.73 118.991C102.134 117.409 102.883 115.936 103.924 114.677C104.964 113.418 106.27 112.405 107.749 111.709C109.227 111.014 110.84 110.653 112.474 110.654C115.053 110.653 117.552 111.551 119.541 113.194C121.529 114.836 122.883 117.119 123.369 119.651L132.366 166.48Z" fill="#CFE0FA"/>
<path d="M129.541 150.016L129.479 149.684L129.412 149.353L129.008 147.236L128.826 146.319L127.644 140.144L125.05 126.633L123.695 119.584C123.418 118.105 122.852 116.696 122.028 115.437C121.204 114.178 120.139 113.093 118.895 112.247C117.651 111.4 116.251 110.808 114.777 110.504C113.303 110.199 111.783 110.189 110.305 110.474C108.827 110.759 107.42 111.332 106.165 112.163C104.909 112.993 103.831 114.062 102.99 115.311C102.15 116.559 101.564 117.961 101.268 119.436C100.971 120.911 100.969 122.43 101.262 123.905L101.973 127.627L104.375 140.158L105.561 146.333L105.734 147.25L106.143 149.367L106.21 149.699L106.272 150.03L108.612 162.226L108.708 162.706L108.794 163.162L109.433 166.523L109.496 166.854H132.76L129.541 150.016ZM109.366 162.682L109.27 162.202L106.93 150.006L106.868 149.675L106.801 149.343L106.392 147.226L106.219 146.309L105.033 140.134L102.727 128.131L101.886 123.771C101.348 120.97 101.945 118.069 103.547 115.708C105.148 113.346 107.622 111.717 110.425 111.179C113.228 110.641 116.13 111.238 118.492 112.839C120.855 114.439 122.484 116.912 123.023 119.714L124.464 127.113L126.967 140.149L128.153 146.323L128.336 147.24L128.739 149.358L128.802 149.689L128.864 150.02L131.962 166.158H110.048L109.471 163.143L109.366 162.682Z" fill="#1880BB"/>
<path d="M109.457 156.954L110.36 156.781L103.943 123.397C103.508 121.135 103.99 118.793 105.283 116.887C106.576 114.981 108.573 113.666 110.836 113.232C113.098 112.798 115.441 113.28 117.348 114.572C119.255 115.864 120.571 117.86 121.005 120.122L124.848 140.077L125.756 139.904L121.913 119.949C121.433 117.447 119.978 115.239 117.869 113.81C115.759 112.38 113.168 111.847 110.665 112.327C108.162 112.807 105.953 114.261 104.523 116.369C103.093 118.478 102.559 121.068 103.039 123.569L109.457 156.954Z" fill="#1880BB"/>
<path d="M127.514 162.677H67.689V166.48H127.514V162.677Z" fill="#E3D8FB"/>
<path d="M116.759 162.216H67.689V163.138H116.759V162.216Z" fill="#1880BB"/>
<path d="M178.654 65.8035V98.3763V120.367V136.485V143.687C178.669 144.484 178.522 145.276 178.222 146.015C177.922 146.754 177.476 147.424 176.91 147.986C176.344 148.547 175.67 148.989 174.928 149.283C174.187 149.578 173.394 149.719 172.597 149.699H43.6559C41.7604 149.66 39.9472 148.917 38.5697 147.615C37.1923 146.313 36.3494 144.545 36.2054 142.655C36.1959 142.532 36.1959 142.408 36.2054 142.285V132.966V104.767V64.4015C36.1909 63.6041 36.3378 62.8121 36.6372 62.0729C36.9366 61.3338 37.3823 60.6627 37.9475 60.0999C38.5128 59.5371 39.186 59.0943 39.9267 58.798C40.6674 58.5017 41.4604 58.3581 42.258 58.3757H171.184C171.569 58.3776 171.953 58.4114 172.333 58.4765C174.07 58.7824 175.648 59.6788 176.8 61.014C177.952 62.3491 178.607 64.0411 178.654 65.8035Z" fill="#E3D8FB"/>
<path d="M178.986 65.8371C178.968 63.7696 178.136 61.7924 176.669 60.3345C175.202 58.8766 173.219 58.0554 171.151 58.0492H42.1812C41.3446 58.0289 40.5125 58.1782 39.7351 58.4879C38.9577 58.7976 38.251 59.2614 37.6577 59.8513C37.0644 60.4412 36.5966 61.145 36.2826 61.9204C35.9687 62.6958 35.815 63.5267 35.8308 64.363V104.733V132.932V142.237C35.8191 142.371 35.8191 142.506 35.8308 142.641C35.9876 144.631 36.8831 146.491 38.3416 147.856C39.8001 149.22 41.7161 149.991 43.7136 150.016H172.664C173.501 150.038 174.333 149.89 175.111 149.581C175.889 149.273 176.597 148.81 177.19 148.22C177.784 147.63 178.252 146.926 178.565 146.15C178.879 145.374 179.032 144.543 179.015 143.707L178.986 65.8371ZM38.785 147.365C37.4569 146.142 36.6503 144.456 36.5321 142.655C36.5251 142.543 36.5251 142.431 36.5321 142.319L36.5081 64.4351C36.4877 63.0727 36.9583 61.7485 37.8339 60.7044C38.3832 60.068 39.0652 59.5594 39.8319 59.2144C40.5987 58.8694 41.4317 58.6962 42.2725 58.707H171.218C171.585 58.7086 171.952 58.7407 172.313 58.803C173.963 59.0953 175.461 59.9475 176.555 61.2159C177.649 62.4843 178.272 64.0911 178.318 65.7651L178.347 143.639C178.363 144.398 178.224 145.152 177.94 145.856C177.655 146.559 177.23 147.198 176.691 147.732C176.152 148.267 175.51 148.686 174.803 148.964C174.097 149.243 173.341 149.375 172.582 149.353H43.6224C41.8135 149.34 40.0799 148.628 38.785 147.365Z" fill="#1880BB"/>
<path d="M175.503 140.139L175.474 65.4722C175.47 64.9574 175.363 64.4486 175.16 63.9754C174.958 63.5023 174.663 63.0742 174.292 62.7162C173.931 62.3476 173.499 62.0539 173.024 61.8521C172.548 61.6502 172.037 61.5441 171.521 61.5398H42.5463C42.1239 61.5293 41.7037 61.6045 41.3112 61.7609C40.9187 61.9172 40.5619 62.1514 40.2625 62.4494C39.963 62.7473 39.7271 63.1029 39.5689 63.4945C39.4108 63.8861 39.3336 64.3057 39.3422 64.728L39.3902 140.139H175.503Z" fill="#EBF1FD"/>
<path d="M43.4015 147.236H172.376C172.517 147.243 172.658 147.243 172.799 147.236L172.611 146.318C172.501 146.318 172.39 146.318 172.28 146.318H43.3054C42.3299 146.298 41.3997 145.903 40.7075 145.216C40.0153 144.528 39.6143 143.601 39.5873 142.626L39.5585 64.752C39.5499 64.3549 39.6221 63.9603 39.7706 63.592C39.9191 63.2236 40.1408 62.8893 40.4225 62.6091C40.7041 62.329 41.0397 62.1089 41.4089 61.9623C41.7781 61.8156 42.1733 61.7454 42.5704 61.7559L42.4743 60.834C41.9661 60.8208 41.4605 60.9111 40.9882 61.0995C40.516 61.2878 40.0871 61.5703 39.7276 61.9297C39.368 62.289 39.0855 62.7177 38.897 63.1897C38.7086 63.6617 38.6182 64.1671 38.6314 64.6751L38.6602 142.549C38.6689 143.167 38.8009 143.777 39.0483 144.344C39.2958 144.91 39.6538 145.422 40.1013 145.848C40.9759 146.726 42.1616 147.225 43.4015 147.236Z" fill="#1880BB"/>
<path d="M168.783 91.1214L129.825 100.724L109.433 105.751L112.017 101.233L119.223 88.6102L136.713 58.0204L137.938 55.8741L139.754 52.7004C146.941 56.8093 153.219 62.3328 158.209 68.9367C163.198 75.5407 166.795 83.0878 168.783 91.1214Z" fill="#F5E5BC"/>
<path d="M143.539 90.6412C143.504 90.646 143.469 90.646 143.434 90.6412C143.344 90.6281 143.259 90.5971 143.182 90.55C143.105 90.503 143.039 90.4409 142.987 90.3676L140.758 87.2947L137.679 89.5273C137.607 89.5797 137.525 89.6173 137.439 89.6379C137.352 89.6585 137.262 89.6617 137.174 89.6474C136.995 89.6182 136.835 89.5199 136.728 89.3737L133.716 85.2204C133.663 85.1474 133.624 85.0645 133.603 84.9766C133.582 84.8888 133.579 84.7976 133.593 84.7084C133.607 84.6192 133.639 84.5337 133.687 84.4568C133.734 84.3798 133.796 84.313 133.869 84.2602L136.944 82.0323L134.715 78.9594C134.661 78.8868 134.622 78.8042 134.6 78.7165C134.578 78.6287 134.574 78.5374 134.588 78.4481C134.602 78.3587 134.633 78.273 134.681 78.1959C134.728 78.1188 134.79 78.0519 134.864 77.9991L139.019 74.9838C139.092 74.9313 139.174 74.8937 139.262 74.8731C139.349 74.8525 139.44 74.8493 139.528 74.8638C139.616 74.8775 139.701 74.9089 139.777 74.9559C139.853 75.0029 139.918 75.0646 139.97 75.1375L142.204 78.2104L145.278 75.9825C145.351 75.93 145.433 75.8924 145.521 75.8718C145.608 75.8512 145.699 75.848 145.787 75.8625C145.876 75.8762 145.96 75.9076 146.036 75.9546C146.112 76.0016 146.178 76.0633 146.229 76.1362L149.241 80.2846C149.294 80.3573 149.331 80.4398 149.352 80.5271C149.373 80.6144 149.376 80.705 149.361 80.7935C149.348 80.8817 149.316 80.9663 149.269 81.0421C149.222 81.118 149.16 81.1837 149.087 81.2353L146.013 83.4679L148.242 86.5408C148.296 86.612 148.335 86.6934 148.356 86.7801C148.378 86.8667 148.381 86.9569 148.367 87.045C148.354 87.134 148.323 87.2195 148.276 87.2962C148.229 87.373 148.167 87.4394 148.093 87.4915L143.938 90.502C143.824 90.5909 143.684 90.6399 143.539 90.6412ZM140.878 86.5264L143.429 90.0411C143.439 90.056 143.453 90.0685 143.469 90.0776C143.484 90.0867 143.502 90.0923 143.52 90.0939C143.536 90.1006 143.553 90.1041 143.57 90.1041C143.588 90.1041 143.605 90.1006 143.621 90.0939L147.771 87.0834C147.786 87.0735 147.799 87.0608 147.809 87.046C147.819 87.0311 147.826 87.0145 147.829 86.997C147.833 86.9616 147.825 86.9258 147.805 86.8961L145.254 83.3767L148.77 80.8271C148.798 80.8057 148.817 80.775 148.823 80.7407C148.826 80.7232 148.826 80.7052 148.822 80.6878C148.818 80.6705 148.81 80.6541 148.799 80.6399L145.787 76.4867C145.766 76.4592 145.735 76.4404 145.701 76.4338C145.683 76.4304 145.665 76.4307 145.648 76.4349C145.63 76.439 145.614 76.4469 145.6 76.4579L142.079 79.0074L139.528 75.4928C139.518 75.4779 139.506 75.4652 139.491 75.4553C139.476 75.4454 139.459 75.4385 139.442 75.4351C139.424 75.4317 139.406 75.4321 139.389 75.4362C139.371 75.4403 139.355 75.4482 139.341 75.4592L135.186 78.4696C135.158 78.4923 135.139 78.5246 135.134 78.5601C135.129 78.5956 135.137 78.6319 135.157 78.6617L137.708 82.1763L134.191 84.7259C134.162 84.7471 134.141 84.7792 134.135 84.8151C134.129 84.851 134.137 84.8879 134.158 84.918L137.17 89.0664C137.18 89.082 137.193 89.0952 137.209 89.1051C137.225 89.1151 137.242 89.1215 137.261 89.124C137.294 89.135 137.329 89.135 137.362 89.124L140.878 86.5264Z" fill="white"/>
<g opacity="0.3">
<path opacity="0.3" d="M153.041 67.0038L112.233 101.574L112.017 101.219L137.957 55.8597C143.589 58.6797 148.692 62.4497 153.041 67.0038Z" fill="#1880BB"/>
</g>
<path d="M146.205 64.8672L109.433 105.751L103.356 95.9036L80.5483 58.9807C90.6608 52.744 102.521 49.947 114.356 51.0081C126.191 52.0692 137.365 56.9313 146.205 64.8672Z" fill="#ABA7F5"/>
<g opacity="0.3">
<path opacity="0.3" d="M105.869 95.337L103.356 95.9036L80.5483 58.9806C83.5131 57.152 86.6447 55.6087 89.9011 54.3713L105.869 95.337Z" fill="#1880BB"/>
</g>
<path d="M109.433 105.751L89.0702 100.667L47.6431 90.3099C47.9601 89.052 48.3156 87.7844 48.7143 86.5312C51.2522 78.494 55.3668 71.0427 60.8177 64.6125C66.2687 58.1823 72.9467 52.9021 80.4619 49.0801L84.425 56.8248L100.474 88.2309L109.433 105.751Z" fill="#BB9BD0"/>
<g opacity="0.3">
<path opacity="0.3" d="M129.825 100.724L109.433 105.751L89.0701 100.667C90.831 95.6572 94.3852 91.4769 99.0474 88.9319C99.5085 88.679 99.9889 88.439 100.488 88.2117C105.354 85.9897 110.873 85.6559 115.971 87.2754C118.452 88.0576 120.771 89.2826 122.816 90.8909C126.038 93.4383 128.468 96.8486 129.825 100.724Z" fill="#0A5E8D"/>
</g>
<path d="M114.712 89.0952C118.008 90.1388 120.921 92.1358 123.081 94.8339C125.241 97.5319 126.553 100.81 126.849 104.253C127.146 107.696 126.415 111.149 124.748 114.177C123.08 117.204 120.553 119.669 117.484 121.261C114.415 122.852 110.943 123.499 107.506 123.118C104.07 122.737 100.824 121.346 98.1785 119.121C95.533 116.896 93.6071 113.937 92.6442 110.618C91.6814 107.299 91.7248 103.769 92.769 100.475C94.1693 96.0571 97.2677 92.3766 101.383 90.2425C105.498 88.1085 110.293 87.6958 114.712 89.0952Z" fill="#E3D8FB"/>
<path d="M109.423 123.541C106.857 123.539 104.321 122.983 101.989 121.91C99.6578 120.837 97.5861 119.272 95.9164 117.324C94.2467 115.375 93.0183 113.089 92.3157 110.621C91.613 108.154 91.4526 105.564 91.8455 103.028C92.2384 100.493 93.1753 98.0726 94.5919 95.9332C96.0085 93.7938 97.8714 91.986 100.053 90.6337C102.234 89.2815 104.682 88.4168 107.229 88.099C109.776 87.7813 112.362 88.0179 114.808 88.7927C118.86 90.0755 122.318 92.7651 124.558 96.3749C126.798 99.9848 127.672 104.277 127.021 108.474C126.371 112.672 124.239 116.499 121.011 119.262C117.784 122.025 113.673 123.543 109.423 123.541ZM109.423 88.5958C105.099 88.5927 100.932 90.2216 97.757 93.1568C94.582 96.0919 92.6326 100.117 92.2987 104.427C91.9648 108.737 93.271 113.014 95.9562 116.402C98.6413 119.791 102.507 122.042 106.781 122.704C111.055 123.367 115.421 122.392 119.007 119.975C122.593 117.558 125.134 113.877 126.121 109.669C127.109 105.46 126.47 101.034 124.334 97.2758C122.197 93.5174 118.72 90.7038 114.597 89.3977C112.93 88.8693 111.192 88.5989 109.443 88.5958H109.423Z" fill="#0A5E8D"/>
<path d="M121.956 78.1768H120.145L120.438 66.2836H121.634L121.956 78.1768Z" fill="white"/>
<path d="M122.614 79.4107H119.478L119.569 79.2234H122.523L122.614 79.4107Z" fill="white"/>
<path d="M122.744 79.2234H119.348V81.3361H122.744V79.2234Z" fill="white"/>
<path d="M113.132 58.8174L100.397 64.6367V65.7459H125.905V64.68L113.132 58.8174ZM102.799 64.7664L113.127 60.037L123.455 64.7664H102.799Z" fill="white"/>
<path d="M113.987 78.1768H112.186L112.479 66.2836H113.67L113.987 78.1768Z" fill="white"/>
<path d="M114.655 79.4107H111.518L111.609 79.2234H114.563L114.655 79.4107Z" fill="white"/>
<path d="M114.784 79.2234H111.388V81.3361H114.784V79.2234Z" fill="white"/>
<path d="M105.974 78.1768H104.168L104.461 66.2836H105.653L105.974 78.1768Z" fill="white"/>
<path d="M106.642 79.4107H103.505L103.597 79.2234H106.551L106.642 79.4107Z" fill="white"/>
<path d="M106.767 79.2234H103.371V81.3361H106.767V79.2234Z" fill="white"/>
<path d="M69.4279 76.477L69.2789 76.6643C69.1291 76.8589 69.0621 77.1048 69.0927 77.3485C69.1233 77.5922 69.2489 77.8139 69.4423 77.9655L71.6952 79.7228C71.7342 79.7532 71.7667 79.7911 71.791 79.8342C71.8152 79.8773 71.8307 79.9248 71.8365 79.9739C71.8423 80.023 71.8383 80.0727 71.8248 80.1203C71.8113 80.1678 71.7885 80.2122 71.7577 80.2509C71.7276 80.2897 71.6902 80.3222 71.6475 80.3464C71.6048 80.3705 71.5577 80.386 71.5089 80.3918C71.4602 80.3976 71.4108 80.3936 71.3636 80.3802C71.3164 80.3667 71.2724 80.344 71.2341 80.3134L68.9811 78.5512C68.8852 78.4762 68.7755 78.4207 68.6582 78.3881C68.5409 78.3554 68.4183 78.3462 68.2974 78.3609C68.1765 78.3756 68.0597 78.414 67.9536 78.4738C67.8476 78.5337 67.7544 78.6138 67.6793 78.7097L67.5352 78.8969C67.4601 78.9928 67.4046 79.1025 67.372 79.2197C67.3393 79.337 67.3301 79.4595 67.3448 79.5804C67.3595 79.7012 67.3979 79.8179 67.4578 79.9239C67.5176 80.0299 67.5978 80.1231 67.6937 80.1981L69.9467 81.9602C69.9851 81.9918 70.017 82.0306 70.0405 82.0744C70.064 82.1183 70.0786 82.1663 70.0835 82.2158C70.0884 82.2653 70.0835 82.3152 70.0691 82.3628C70.0547 82.4104 70.031 82.4547 69.9995 82.4932C69.968 82.5317 69.9291 82.5635 69.8853 82.587C69.8414 82.6105 69.7934 82.6251 69.7438 82.63C69.6943 82.6349 69.6443 82.63 69.5967 82.6156C69.5491 82.6012 69.5048 82.5775 69.4663 82.546L67.2518 80.7887C67.1559 80.7136 67.0462 80.6582 66.9289 80.6255C66.8115 80.5929 66.6889 80.5836 66.568 80.5984C66.4472 80.6131 66.3304 80.6514 66.2243 80.7113C66.1183 80.7711 66.025 80.8513 65.95 80.9471L65.8059 81.1296C65.7308 81.2254 65.6753 81.3351 65.6426 81.4524C65.61 81.5696 65.6007 81.6922 65.6154 81.813C65.6302 81.9339 65.6686 82.0506 65.7284 82.1566C65.7883 82.2626 65.8685 82.3558 65.9644 82.4308L70.624 86.0751C70.9435 86.327 71.3386 86.4641 71.7456 86.4641C72.1526 86.4641 72.5478 86.327 72.8673 86.0751L72.9874 85.9742L78.968 90.6556C79.2092 90.858 79.4887 91.0097 79.7898 91.1017C80.091 91.1937 80.4076 91.2241 80.7207 91.1911C81.0339 91.1582 81.3372 91.0625 81.6125 90.9098C81.8879 90.757 82.1296 90.5504 82.3233 90.3023C82.517 90.0541 82.6587 89.7695 82.74 89.4654C82.8212 89.1614 82.8403 88.844 82.7962 88.5324C82.752 88.2208 82.6455 87.9212 82.483 87.6516C82.3204 87.382 82.1053 87.148 81.8502 86.9633L75.8696 82.2819L75.9321 82.1475C76.1006 81.777 76.1396 81.3607 76.0429 80.9653C75.9462 80.57 75.7194 80.2186 75.3989 79.9677L70.7393 76.3282C70.6437 76.2511 70.5338 76.1938 70.4159 76.1595C70.298 76.1252 70.1744 76.1147 70.0524 76.1286C69.9304 76.1424 69.8124 76.1804 69.7052 76.2402C69.598 76.3 69.5037 76.3805 69.4279 76.477ZM75.0482 80.3998C75.1785 80.5016 75.2875 80.628 75.369 80.7719C75.4504 80.9158 75.5026 81.0744 75.5227 81.2385C75.5428 81.4026 75.5303 81.569 75.486 81.7283C75.4416 81.8876 75.3663 82.0365 75.2644 82.1667C75.2414 82.1945 75.2243 82.2267 75.214 82.2612C75.2037 82.2958 75.2005 82.3321 75.2045 82.3679C75.2085 82.4038 75.2197 82.4384 75.2375 82.4698C75.2552 82.5013 75.279 82.5288 75.3076 82.5508L81.4996 87.3859C81.685 87.5309 81.8401 87.711 81.9559 87.9159C82.0717 88.1208 82.146 88.3466 82.1746 88.5802C82.2031 88.8138 82.1854 89.0508 82.1223 89.2775C82.0592 89.5043 81.9521 89.7164 81.807 89.9018C81.6619 90.0872 81.4817 90.2422 81.2767 90.3579C81.0717 90.4737 80.8458 90.548 80.6121 90.5765C80.3784 90.605 80.1413 90.5873 79.9144 90.5242C79.6875 90.4612 79.4753 90.3541 79.2899 90.2091L73.1027 85.3693C73.0739 85.3467 73.0408 85.3301 73.0055 85.3206C72.9702 85.311 72.9333 85.3086 72.897 85.3135C72.8607 85.3184 72.8258 85.3306 72.7943 85.3492C72.7628 85.3679 72.7353 85.3926 72.7136 85.4221C72.5074 85.6831 72.2061 85.8518 71.8757 85.8914C71.5454 85.931 71.2127 85.8382 70.9506 85.6333L66.291 81.9891C66.2524 81.9595 66.22 81.9225 66.1959 81.8802C66.1718 81.8379 66.1563 81.7912 66.1505 81.7429C66.1447 81.6946 66.1486 81.6456 66.162 81.5988C66.1754 81.552 66.1981 81.5084 66.2286 81.4705L66.3679 81.2832C66.4286 81.2052 66.5178 81.1544 66.6159 81.1418C66.7139 81.1292 66.813 81.1559 66.8915 81.216L69.1444 82.9782C69.2364 83.0722 69.3474 83.1456 69.47 83.1934C69.5925 83.2413 69.7239 83.2625 69.8553 83.2557C69.9867 83.2489 70.1152 83.2142 70.2321 83.154C70.3491 83.0937 70.4519 83.0093 70.5337 82.9062C70.6154 82.8032 70.6743 82.6839 70.7064 82.5564C70.7385 82.4288 70.7431 82.2959 70.7199 82.1665C70.6966 82.037 70.646 81.914 70.5715 81.8056C70.497 81.6972 70.4003 81.6059 70.2877 81.5377L68.0348 79.7756C67.9582 79.7135 67.9092 79.6237 67.8984 79.5258C67.8876 79.4278 67.9159 79.3295 67.9771 79.2522L68.1213 79.0698C68.1509 79.0313 68.1878 78.9991 68.23 78.9749C68.2721 78.9507 68.3186 78.935 68.3667 78.9288C68.4149 78.9225 68.4638 78.9258 68.5107 78.9385C68.5576 78.9512 68.6016 78.9729 68.6401 79.0026L70.893 80.7647C70.985 80.8587 71.096 80.9321 71.2185 80.98C71.3411 81.0278 71.4724 81.0491 71.6038 81.0423C71.7353 81.0355 71.8637 81.0008 71.9807 80.9405C72.0976 80.8803 72.2004 80.7958 72.2822 80.6928C72.364 80.5897 72.4229 80.4705 72.455 80.3429C72.4871 80.2154 72.4917 80.0825 72.4684 79.953C72.4451 79.8236 72.3946 79.7005 72.3201 79.5921C72.2456 79.4837 72.1488 79.3924 72.0363 79.3243L69.7833 77.5621C69.7074 77.5009 69.6584 77.4124 69.6468 77.3155C69.6351 77.2187 69.6617 77.1211 69.7209 77.0436L69.8698 76.8563C69.8994 76.8179 69.9364 76.7856 69.9785 76.7614C70.0206 76.7372 70.0671 76.7216 70.1153 76.7153C70.1634 76.7091 70.2124 76.7124 70.2593 76.725C70.3062 76.7377 70.3501 76.7595 70.3886 76.7891L75.0482 80.3998Z" fill="white"/>
<path d="M75.9511 68.1417L74.2699 70.288C72.4733 72.5879 72.9536 75.7664 75.4035 77.6822L80.0535 81.3168C80.1895 81.4224 80.3617 81.4699 80.5326 81.4493C80.7035 81.4286 80.8593 81.3413 80.9662 81.2064L82.6859 79.0074L86.0197 81.6145C86.2609 81.8169 86.5404 81.9686 86.8415 82.0606C87.1427 82.1526 87.4593 82.183 87.7724 82.1501C88.0856 82.1171 88.3889 82.0214 88.6642 81.8687C88.9396 81.716 89.1813 81.5094 89.375 81.2612C89.5687 81.0131 89.7104 80.7285 89.7917 80.4244C89.8729 80.1203 89.892 79.8029 89.8479 79.4913C89.8037 79.1797 89.6972 78.8801 89.5347 78.6105C89.3721 78.341 89.1569 78.1069 88.9019 77.9222L76.3306 68.0937C76.2732 68.0518 76.2019 68.0334 76.1313 68.0424C76.0608 68.0513 75.9963 68.0868 75.9511 68.1417ZM88.5657 78.364C88.7636 78.504 88.931 78.6827 89.0578 78.8893C89.1846 79.0959 89.2682 79.3261 89.3033 79.5659C89.3385 79.8057 89.3247 80.0502 89.2626 80.2845C89.2004 80.5188 89.0914 80.7381 88.942 80.929C88.7926 81.1199 88.6061 81.2786 88.3935 81.3953C88.181 81.5121 87.947 81.5845 87.7057 81.6082C87.4643 81.6319 87.2207 81.6063 86.9895 81.5332C86.7584 81.46 86.5444 81.3406 86.3608 81.1824L83.1039 78.628C82.9674 78.5238 82.7955 78.4769 82.625 78.4976C82.4545 78.5182 82.2988 78.6047 82.1912 78.7385L80.4714 80.9327L75.7494 77.2404C73.5541 75.5263 73.1122 72.6839 74.7166 70.6337L76.225 68.7131L88.5657 78.364Z" fill="white"/>
<path d="M75.8984 70.7105C75.8756 70.739 75.8587 70.7718 75.8488 70.807C75.8388 70.8421 75.836 70.8789 75.8404 70.9151C75.8449 70.9513 75.8566 70.9863 75.8748 71.018C75.893 71.0496 75.9174 71.0773 75.9465 71.0994L82.6717 76.381C82.7298 76.4258 82.8032 76.446 82.8761 76.437C82.9489 76.428 83.0153 76.3906 83.0608 76.333C83.1056 76.2749 83.1258 76.2015 83.1168 76.1286C83.1078 76.0558 83.0704 75.9895 83.0127 75.9441L76.2875 70.6625C76.2294 70.6177 76.156 70.5975 76.0831 70.6065C76.0103 70.6155 75.9439 70.6529 75.8984 70.7105Z" fill="white"/>
<path d="M110.591 97.6273C111.187 97.6923 111.774 97.8261 112.339 98.0258C112.883 98.2153 113.394 98.4856 113.857 98.8276C114.317 99.1739 114.711 99.6 115.02 100.086C115.352 100.62 115.583 101.211 115.702 101.829H113.492C113.263 101.218 112.883 100.676 112.387 100.254C111.875 99.8519 111.262 99.5993 110.615 99.5238L110.682 105.012C111.129 105.18 111.571 105.343 112.008 105.516C112.445 105.689 112.868 105.871 113.271 106.068C113.659 106.258 114.033 106.474 114.39 106.716C114.724 106.956 115.026 107.237 115.289 107.552C115.543 107.846 115.748 108.18 115.894 108.541C116.044 108.928 116.12 109.34 116.12 109.756C116.142 110.424 115.988 111.086 115.673 111.676C115.368 112.222 114.953 112.698 114.453 113.073C113.931 113.462 113.35 113.765 112.733 113.971C112.11 114.183 111.466 114.328 110.812 114.403L110.845 117.145L108.607 117.169L108.573 114.375C107.919 114.256 107.289 114.034 106.705 113.717C105.826 113.238 105.065 112.57 104.477 111.76C103.89 110.95 103.49 110.019 103.308 109.035L105.653 109.011C105.735 109.415 105.867 109.807 106.046 110.178C106.212 110.533 106.422 110.865 106.671 111.167C106.911 111.46 107.194 111.715 107.512 111.921C107.831 112.133 108.181 112.295 108.549 112.401L108.477 106.438C107.853 106.198 107.252 105.958 106.681 105.679C106.131 105.434 105.611 105.124 105.134 104.757C104.695 104.423 104.323 104.01 104.039 103.538C103.771 103.051 103.626 102.506 103.616 101.951C103.606 101.396 103.731 100.846 103.981 100.35C104.233 99.8654 104.579 99.4361 104.999 99.0869C105.455 98.7031 105.967 98.3921 106.517 98.165C107.109 97.9171 107.731 97.746 108.367 97.6561V95.894L110.6 95.87L110.591 97.6273ZM105.922 101.79C105.92 102.066 105.986 102.338 106.114 102.582C106.247 102.83 106.422 103.053 106.633 103.24C106.875 103.455 107.141 103.642 107.425 103.797C107.752 103.976 108.089 104.136 108.434 104.277L108.376 99.5767C107.7 99.651 107.061 99.929 106.546 100.374C106.346 100.551 106.186 100.769 106.078 101.013C105.971 101.258 105.917 101.523 105.922 101.79ZM113.809 109.804C113.806 109.514 113.714 109.232 113.545 108.997C113.355 108.731 113.123 108.497 112.858 108.306C112.547 108.076 112.216 107.875 111.869 107.705C111.494 107.523 111.11 107.355 110.706 107.197L110.773 112.478C111.211 112.424 111.64 112.309 112.046 112.137C112.396 111.986 112.72 111.782 113.007 111.532C113.26 111.308 113.466 111.035 113.612 110.73C113.743 110.444 113.81 110.133 113.809 109.818V109.804Z" fill="white"/>
<path d="M53.1768 68.6603C53.1756 68.6524 53.1756 68.6443 53.1768 68.6363C52.8166 67.676 54.7572 55.927 57.7403 55.0627C58.9989 54.7026 64.3166 55.0627 65.4743 55.0627C70.0138 55.0627 68.8369 60.7428 68.6255 64.5599C68.4046 68.8428 66.4927 75.2191 63.1733 75.3151C62.5348 75.2656 61.9103 75.103 61.3287 74.8349L58.7924 82.5172C58.7924 82.5172 51.7117 84.3033 48.7046 79.5067L53.1768 68.6603Z" fill="#F8A3A2"/>
<path d="M30.3112 114.615C29.898 115.681 23.8838 114.355 16.8608 111.647C9.8378 108.939 7.81545 106.908 8.21415 105.838C8.61286 104.767 11.3269 105.079 18.3403 107.758C25.3537 110.437 30.7435 113.544 30.3112 114.615Z" fill="#0A5E8D"/>
<path d="M16.2652 157.751C16.2652 157.751 11.5816 160.084 10.2221 158.476C8.8627 156.867 12.4607 156.675 12.4607 156.675C12.4607 156.675 9.98196 156.651 10.0204 155.864C10.0588 155.076 11.4375 154.092 12.9026 154.116C14.3677 154.14 17.3845 153.156 17.4757 153.9C17.567 154.644 18.4413 156.205 16.2652 157.751Z" fill="#0A5E8D"/>
<path d="M35.283 104.1C35.283 104.1 28.5145 111.988 22.8894 117.702C20.5356 125.231 18.8447 139.035 18.0425 142.247C18.0425 142.247 17.7735 143.082 19.5509 148.551C21.3282 154.02 19.3011 158.005 15.7079 160.924C12.1147 163.844 12.7344 161.649 13.306 160.66C13.8777 159.671 18.0041 155.35 17.0625 154.087C17.0625 154.087 15.8088 153.453 15.0306 155.264C14.2524 157.074 13.8056 158.773 12.499 159.268C11.1924 159.762 11.6584 158.476 11.7689 157.602C11.8793 156.728 12.6191 154.519 12.5855 153.415C12.5519 152.311 11.3461 149.281 12.3069 147.312C12.3146 145.853 12.2441 144.395 12.0955 142.943C12.086 142.91 12.086 142.875 12.0955 142.842L8.47352 115.993C8.30569 114.317 8.59625 112.628 9.31417 111.105V111.081C9.39947 110.829 9.51224 110.588 9.65043 110.361C12.8017 105.338 16.2315 97.4304 24.9358 91.7504C33.6401 86.0703 44.4676 95.3514 35.283 104.1Z" fill="#F8A3A2"/>
<path d="M55.0455 83.876C53.124 80.443 46.4949 76.7315 38.7609 79.9629C31.027 83.1942 20.0938 90.2091 8.2959 105.737C8.2959 105.737 21.2659 106.092 30.2728 114.677C30.2728 114.677 45.2171 106.26 50.5108 100.364C55.8045 94.468 57.1639 87.6644 55.0455 83.876Z" fill="#F5E5BC"/>
<path d="M14.7376 148.162C13.4934 153.405 12.8929 188.182 15.6118 193.733C17.5333 197.684 39.3661 207.479 41.3885 196.469C43.161 186.799 48.4355 154.491 47.9791 148.738C47.5564 143.183 18.4844 132.414 14.7376 148.162Z" fill="#0A5E8D"/>
<path d="M48.8342 137.282C48.5892 133.585 35.7393 127.435 25.9878 128.328L23.1729 162.576C24.6745 164.543 26.0357 166.612 27.2464 168.77C31.0893 177.254 34.6297 183.174 43.3628 185.503C45.7983 168.693 49.1272 141.68 48.8342 137.282Z" fill="#0A5E8D"/>
<path d="M24.7054 143.755C25.498 149.084 42.479 192.974 47.0666 197.113C50.3331 200.056 62.4384 200.762 68.5631 191.404C74.6878 182.046 58.3361 137.085 55.7661 131.919C53.2874 126.926 22.3131 127.747 24.7054 143.755Z" fill="#0A5E8D"/>
<path d="M66.6031 84.8747C73.1554 90.9677 73.7511 102.818 70.3212 122.263C66.8914 141.709 67.756 155.009 64.6 159.59C64.6 159.59 38.0932 175.338 8.22862 155.696C8.22862 155.696 6.68663 146.823 13.8201 123.305C20.9536 99.7879 25.9014 96.8302 31.0126 88.1349C36.1237 79.4395 53.0183 74.0139 56.6499 77.0916C60.2815 80.1693 61.5497 80.1837 66.6031 84.8747Z" fill="#F5E5BC"/>
<path d="M105.119 69.563C101.353 71.4836 99.8832 72.4102 100.455 77.6678C101.027 82.9253 102.117 84.6971 102.117 84.6971C102.117 84.6971 102.42 86.0079 102.117 86.6656C102.083 86.7182 102.056 86.7746 102.035 86.8337C100.503 90.1371 94.2341 100.652 94.2341 100.652C90.0933 98.0546 84.9966 95.0633 84.9966 95.0633C74.2315 89.6233 64.6001 105.458 72.4637 111.441C79.8855 117.092 90.4104 120.597 96.2949 120.564C98.6199 120.804 101.046 119.536 102.938 115.762C106.998 107.715 109.222 86.6368 109.222 86.5504C109.21 85.429 109.069 84.3126 108.804 83.223C108.323 82.1811 107.91 81.0816 107.963 80.8223C108.134 80.0026 108.074 79.1514 107.788 78.3643C107.502 77.5773 107.002 76.8854 106.344 76.3666C106.931 76.2582 107.525 76.1924 108.122 76.1697C109.731 76.1697 111.335 75.2095 111.451 74.4892C111.566 73.769 108.847 73.7786 108.847 73.7786C108.847 73.7786 112.82 73.529 111.475 72.0549C110.13 70.5809 106.277 72.0885 104.749 72.8472C104.576 72.9336 104.413 73.0248 104.269 73.116C105.033 72.2998 106.19 71.5412 106.599 71.085C107.319 70.336 108.885 67.6232 105.119 69.563Z" fill="#F8A3A2"/>
<path d="M54.8918 85.2108C52.6821 87.5395 50.948 91.0878 54.9495 97.7906C58.951 104.493 70.5951 113.832 80.827 119.186C80.827 119.186 94.5368 108.032 91.5056 96.0188C91.5056 96.0188 74.0442 86.1471 68.1308 83.4823C62.2175 80.8175 57.3273 82.6373 54.8918 85.2108Z" fill="#F5E5BC"/>
<path d="M76.6333 107.461C74.5647 108.399 72.2558 108.671 70.0254 108.241C67.795 107.811 65.7532 106.7 64.1821 105.06L64.5232 104.719C66.0186 106.292 67.9659 107.361 70.0958 107.779C72.2258 108.197 74.433 107.943 76.4123 107.052L76.6333 107.461Z" fill="white"/>
<path d="M86.4665 113.904C84.9139 115.949 83.142 117.819 81.1825 119.479L81.0864 119.555L80.9663 119.522C80.8174 119.479 65.9499 115.143 58.0623 105.18L58.4369 104.882C65.8106 114.274 79.5156 118.595 80.9375 119.027C81.6532 118.432 86.1639 114.557 88.8203 109.261L89.2479 109.477C88.4605 111.036 87.5293 112.518 86.4665 113.904Z" fill="white"/>
<path d="M97.4524 105.943C95.8576 102.102 93.4029 100.441 93.3789 100.427L93.6527 100.009C93.7584 100.081 96.2515 101.757 97.9136 105.77L97.4524 105.943Z" fill="#D17F80"/>
<path d="M50.2274 191.193C47.3788 187.971 42.5415 189.272 42.503 189.272L42.3061 189.325L34.0293 170.599L34.4664 170.407L42.5799 188.753C43.5406 188.537 47.8639 187.793 50.5876 190.856L50.2274 191.193Z" fill="#0A5E8D"/>
<path d="M32.8908 142.223C29.5161 141.564 26.4665 139.775 24.2441 137.153L24.6332 136.869C24.6957 136.956 31.1278 145.473 43.848 140.533L44.021 140.979C39.5583 142.713 35.8451 142.828 32.8908 142.223Z" fill="white"/>
<path d="M18.1916 110.913L17.8169 110.764C20.8694 103.298 24.982 96.3107 30.0279 90.017L30.3353 90.2763C25.319 96.538 21.2293 103.488 18.1916 110.913Z" fill="white"/>
<path d="M61.2518 75.0318L61.3863 74.6381C60.4846 74.3265 59.6196 73.9176 58.8067 73.4185L58.5713 73.7594C59.4152 74.2808 60.3142 74.7076 61.2518 75.0318Z" fill="#0A5E8D"/>
<path d="M45.0393 62.1112C46.1777 50.8759 52.7924 47.15 61.5688 51.1159C65.5174 52.9021 67.1891 51.7545 69.9752 53.9968C72.5692 56.0854 63.2501 66.3748 63.2501 66.3748L61.6889 61.7655C61.6889 61.7655 58.6673 63.3788 57.8459 67.7769C56.9957 72.295 57.2647 84.6971 57.2647 84.6971C57.2647 84.6971 45.7358 85.8014 39.6495 81.2352C39.6255 81.24 44.5541 66.879 45.0393 62.1112Z" fill="#0A5E8D"/>
<path d="M57.2454 63.0859C56.7218 64.8192 57.5 66.5861 58.9844 67.0374C60.4687 67.4888 62.0972 66.4469 62.6208 64.7136C63.1444 62.9802 62.371 61.2133 60.8866 60.7668C59.4023 60.3203 57.769 61.3526 57.2454 63.0859Z" fill="#F8A3A2"/>
<path d="M59.8348 66.3268C60.1807 66.302 60.5131 66.1824 60.7955 65.9811L60.4689 65.501C60.2762 65.6502 60.0401 65.7328 59.7964 65.7363C59.7627 65.7363 59.7243 65.7075 59.6907 65.6258C59.6571 65.5442 59.6474 65.4482 59.8204 65.2369C59.9768 65.0751 60.0947 64.8801 60.1654 64.6665C60.2361 64.4529 60.2577 64.2261 60.2287 64.003C60.1758 63.6331 60.0431 63.2792 59.8396 62.9659C59.6138 62.5817 59.5706 62.4857 59.8972 62.2408C59.9481 62.1964 60.0077 62.1631 60.0723 62.1433C60.1369 62.1234 60.2049 62.1174 60.2719 62.1256C60.7814 62.2865 61.2291 62.5999 61.5545 63.0235L61.9917 62.6682C61.91 62.5673 61.1462 61.6503 60.3296 61.5638C60.0441 61.5371 59.7595 61.6233 59.537 61.8039C58.8452 62.3801 59.1238 62.8602 59.3496 63.2443C59.515 63.4893 59.6233 63.7682 59.6667 64.0606C59.6887 64.2082 59.6749 64.359 59.6264 64.5003C59.5779 64.6415 59.4961 64.769 59.388 64.872C59.2568 64.9899 59.1654 65.1456 59.1267 65.3177C59.088 65.4898 59.1038 65.6696 59.1719 65.8323C59.2137 65.9352 59.2788 66.0269 59.3622 66.1002C59.4456 66.1735 59.5449 66.2265 59.6522 66.2548C59.7098 66.2865 59.7711 66.3107 59.8348 66.3268Z" fill="#0A5E8D"/>
<path d="M151.417 133.287C147.574 129.859 146.522 123.358 149.227 117.404C151.931 111.451 157.446 108.013 162.533 108.594L162.72 108.176L165.353 109.372C171.06 111.964 173.096 119.767 169.902 126.796C166.707 133.825 159.483 137.421 153.776 134.829L151.211 133.744L151.417 133.287Z" fill="#F9CAAD"/>
<path d="M157.701 135.765C156.328 135.775 154.969 135.486 153.718 134.92L151.062 133.792L151.278 133.311C147.349 129.758 146.474 123.228 149.121 117.366C151.768 111.503 157.235 107.931 162.456 108.488L162.653 108.046L165.372 109.28C168.163 110.548 170.176 113.073 171.04 116.396C171.886 119.895 171.51 123.578 169.974 126.834C167.486 132.346 162.5 135.765 157.701 135.765ZM151.345 133.691L153.814 134.737C159.483 137.321 166.645 133.724 169.811 126.758C171.331 123.543 171.705 119.906 170.872 116.449C170.017 113.189 168.043 110.687 165.314 109.468L162.773 108.31L162.596 108.704H162.524C157.36 108.114 151.931 111.715 149.318 117.462C146.705 123.209 147.57 129.744 151.485 133.23L151.537 133.278L151.345 133.691Z" fill="#0A5E8D"/>
<path d="M146.599 116.194C143.4 123.224 145.504 131.136 151.211 133.729C156.918 136.322 164.075 132.615 167.27 125.567C170.464 118.518 168.432 110.735 162.72 108.142C157.009 105.55 149.794 109.18 146.599 116.194Z" fill="white"/>
<path d="M148.434 117.054C145.807 122.816 147.531 129.326 152.224 131.458C156.918 133.59 162.793 130.546 165.411 124.775C168.029 119.003 166.371 112.593 161.673 110.461C156.975 108.33 151.067 111.283 148.434 117.054Z" fill="#F9CAAD"/>
<path d="M155.414 132.236C154.303 132.239 153.203 132.003 152.191 131.545C149.895 130.503 148.228 128.404 147.498 125.648C146.782 122.755 147.084 119.703 148.353 117.006C149.538 114.29 151.618 112.061 154.247 110.692C156.774 109.434 159.43 109.314 161.726 110.356C166.458 112.507 168.153 118.998 165.511 124.799C164.326 127.516 162.26 129.755 159.646 131.156C158.341 131.845 156.89 132.215 155.414 132.236ZM148.53 117.097C147.283 119.75 146.986 122.75 147.69 125.596C148.406 128.299 150.029 130.344 152.272 131.357C154.516 132.37 157.076 132.241 159.555 130.983C162.122 129.606 164.151 127.408 165.319 124.741C167.918 119.027 166.28 112.665 161.635 110.562C159.396 109.544 156.798 109.66 154.324 110.894C151.736 112.244 149.688 114.438 148.521 117.111L148.53 117.097Z" fill="#0A5E8D"/>
<path d="M158.892 115.537C159.203 115.684 159.495 115.87 159.761 116.089C160.019 116.307 160.241 116.565 160.419 116.852C160.6 117.148 160.727 117.473 160.794 117.812C160.862 118.205 160.862 118.606 160.794 118.998L159.588 118.614C159.588 118.212 159.493 117.815 159.31 117.457C159.119 117.127 158.835 116.862 158.493 116.694L157.422 120.055L158.042 120.597C158.242 120.776 158.432 120.965 158.613 121.164C158.788 121.35 158.949 121.549 159.094 121.759C159.23 121.961 159.342 122.179 159.425 122.407C159.503 122.638 159.545 122.879 159.55 123.123C159.553 123.387 159.512 123.65 159.43 123.901C159.311 124.313 159.093 124.69 158.796 125C158.523 125.276 158.196 125.492 157.835 125.634C157.479 125.775 157.103 125.856 156.721 125.874C156.359 125.89 155.996 125.864 155.64 125.797L155.102 127.478L153.886 127.089L154.429 125.38C154.094 125.188 153.795 124.939 153.545 124.645C153.291 124.348 153.085 124.012 152.935 123.651C152.776 123.276 152.671 122.88 152.623 122.475C152.57 122.045 152.58 121.61 152.652 121.183L153.93 121.591C153.893 121.85 153.885 122.113 153.906 122.374C153.924 122.615 153.97 122.854 154.045 123.084C154.113 123.302 154.216 123.508 154.348 123.694C154.48 123.879 154.643 124.042 154.828 124.174L155.99 120.53C155.702 120.271 155.428 120.012 155.169 119.747C154.919 119.492 154.7 119.208 154.516 118.902C154.339 118.608 154.222 118.282 154.17 117.942C154.115 117.582 154.149 117.215 154.271 116.871C154.373 116.543 154.547 116.241 154.78 115.988C155.013 115.746 155.288 115.548 155.592 115.402C155.91 115.253 156.251 115.155 156.6 115.114C156.967 115.061 157.339 115.061 157.705 115.114L158.051 114.034L159.266 114.423L158.892 115.537ZM155.529 117.241C155.473 117.406 155.453 117.581 155.472 117.755C155.495 117.922 155.545 118.084 155.62 118.235C155.708 118.406 155.814 118.567 155.938 118.715C156.078 118.885 156.229 119.045 156.389 119.195L157.307 116.314C156.914 116.242 156.508 116.298 156.149 116.473C155.997 116.552 155.862 116.66 155.754 116.792C155.645 116.924 155.563 117.077 155.515 117.241H155.529ZM158.19 123.536C158.242 123.36 158.242 123.174 158.19 122.998C158.142 122.806 158.063 122.622 157.955 122.455C157.837 122.261 157.698 122.079 157.542 121.913C157.374 121.735 157.201 121.562 157.014 121.394L155.981 124.63C156.232 124.671 156.488 124.671 156.74 124.63C156.964 124.6 157.181 124.533 157.383 124.434C157.568 124.341 157.731 124.212 157.864 124.054C158.001 123.904 158.107 123.727 158.176 123.536H158.19Z" fill="white"/>
<path d="M144.111 62.4905C149.078 63.4892 154.804 60.4739 157.888 54.8418C160.972 49.2098 160.424 42.8383 156.97 39.194L157.187 38.8003L154.679 37.4511C149.28 34.4934 141.944 37.4943 138.303 44.1731C134.662 50.8518 136.089 58.6205 141.493 61.5734L143.861 62.9466L144.111 62.4905Z" fill="#F9CAAD"/>
<path d="M143.919 63.0523L141.464 61.6118C136.021 58.6398 134.575 50.775 138.236 44.0818C139.889 40.9539 142.562 38.4842 145.811 37.0814C148.934 35.8042 152.109 35.8954 154.746 37.3407L157.326 38.7475L157.095 39.1652C160.612 42.9391 160.981 49.3874 157.979 54.8754C154.977 60.3635 149.27 63.5708 144.168 62.5865L143.919 63.0523ZM150.163 36.3948C148.693 36.4068 147.239 36.7069 145.883 37.2782C142.678 38.6583 140.039 41.0907 138.404 44.1731C134.796 50.775 136.209 58.5197 141.56 61.4582L143.842 62.7834L144.068 62.3801H144.135C149.184 63.398 154.804 60.2722 157.806 54.7794C160.808 49.2866 160.415 42.9535 156.903 39.2468L156.855 39.1988L157.062 38.8243L154.66 37.5087C153.28 36.7656 151.735 36.3825 150.168 36.3948H150.163Z" fill="#0A5E8D"/>
<path d="M160.386 56.2006C156.745 62.8602 149.285 65.8707 143.88 62.9226C138.476 59.9746 137.155 52.1674 140.811 45.5079C144.466 38.8483 151.787 35.8522 157.191 38.7859C162.596 41.7195 164.027 49.5459 160.386 56.2006Z" fill="white"/>
<path d="M158.633 55.2547C155.64 60.7188 149.506 63.1963 145.077 60.7668C140.648 58.3373 139.567 51.9322 142.559 46.4633C145.552 40.9945 151.571 38.5362 156.01 40.9609C160.448 43.3856 161.625 49.7859 158.633 55.2547Z" fill="#F9CAAD"/>
<path d="M148.809 61.8039C147.489 61.8094 146.19 61.4789 145.033 60.8436C142.867 59.6576 141.411 57.4826 140.936 54.765C140.492 51.8866 141.034 48.9429 142.473 46.4105C145.485 40.9033 151.6 38.4162 156.058 40.8649C158.229 42.0556 159.704 44.2259 160.203 46.9387C160.637 49.8169 160.112 52.7578 158.708 55.308C157.305 57.8582 155.1 59.8759 152.436 61.0501C151.287 61.5328 150.055 61.7888 148.809 61.8039ZM152.277 40.1255C148.65 40.1255 144.812 42.5262 142.622 46.5114C141.213 49.0072 140.687 51.9047 141.128 54.7362C141.608 57.4106 143.011 59.5376 145.124 60.6803C147.238 61.8231 149.818 61.9095 152.364 60.8772C154.985 59.7181 157.153 57.7306 158.535 55.2203C159.916 52.7099 160.435 49.8155 160.011 46.9819C159.531 44.3123 158.09 42.2045 155.966 41.0473C154.835 40.4323 153.565 40.1151 152.277 40.1255Z" fill="#0A5E8D"/>
<path d="M153.939 46.3145C154.212 46.5118 154.46 46.7407 154.679 46.9963C154.894 47.2506 155.068 47.5374 155.193 47.8462C155.318 48.1664 155.386 48.506 155.395 48.8497C155.4 49.2406 155.342 49.6298 155.222 50.002L154.117 49.4306C154.185 49.0409 154.157 48.6404 154.035 48.2639C153.903 47.9138 153.671 47.61 153.368 47.39L151.783 50.4677L152.292 51.0967C152.46 51.308 152.614 51.5192 152.772 51.7353C152.909 51.9456 153.031 52.1655 153.137 52.3931C153.237 52.6102 153.308 52.8394 153.349 53.0749C153.387 53.3102 153.387 53.5502 153.349 53.7855C153.309 54.0426 153.226 54.291 153.104 54.5201C152.918 54.898 152.647 55.227 152.311 55.4804C152.008 55.7083 151.661 55.8717 151.293 55.9606C150.925 56.0416 150.546 56.0578 150.173 56.0086C149.8 55.9635 149.433 55.8715 149.083 55.7349L148.285 57.2762L147.171 56.6568L147.978 55.0963C147.687 54.8528 147.438 54.5623 147.243 54.2369C147.049 53.9063 146.905 53.5487 146.815 53.1757C146.722 52.7846 146.686 52.3817 146.71 51.9802C146.73 51.5567 146.809 51.1381 146.945 50.7366L148.117 51.3416C148.041 51.5871 147.989 51.8396 147.964 52.0954C147.937 52.3332 147.937 52.5731 147.964 52.8108C147.996 53.0325 148.063 53.2478 148.161 53.4494C148.255 53.6451 148.382 53.8236 148.535 53.9776L150.265 50.6406C150.024 50.3429 149.784 50.0452 149.592 49.7475C149.397 49.4598 149.236 49.1504 149.112 48.8257C148.993 48.5193 148.931 48.1939 148.929 47.8654C148.937 47.5075 149.031 47.1568 149.203 46.8427C149.365 46.5439 149.596 46.2873 149.875 46.0936C150.138 45.8936 150.436 45.7453 150.755 45.6567C151.087 45.5648 151.433 45.5259 151.778 45.5415C152.143 45.5609 152.503 45.6304 152.849 45.7479L153.358 44.7589L154.473 45.335L153.939 46.3145ZM150.389 47.414C150.309 47.5623 150.262 47.726 150.25 47.8942C150.247 48.0564 150.268 48.2182 150.313 48.3743C150.37 48.5552 150.447 48.7291 150.543 48.8929C150.65 49.0781 150.769 49.2561 150.899 49.4258L152.277 46.8283C151.909 46.6911 151.505 46.6793 151.129 46.7947C150.97 46.8424 150.823 46.922 150.696 47.0285C150.569 47.1349 150.464 47.2661 150.389 47.414ZM151.931 53.9488C152.017 53.7918 152.055 53.6133 152.042 53.435C152.026 53.2399 151.979 53.0485 151.903 52.8684C151.82 52.6597 151.715 52.4601 151.59 52.2731C151.461 52.0714 151.317 51.8794 151.168 51.6825L149.63 54.6498C149.866 54.7373 150.114 54.786 150.365 54.7938C150.586 54.8044 150.807 54.7768 151.019 54.7122C151.215 54.6522 151.398 54.5544 151.557 54.4241C151.712 54.2923 151.84 54.1307 151.931 53.9488Z" fill="white"/>
<path d="M147.205 100.542C144.644 101.118 141.642 99.6247 139.999 96.739C138.356 93.8534 138.558 90.5596 140.292 88.6294L140.177 88.4278L141.45 87.6932C144.217 86.0991 148.045 87.5683 150.01 90.9725C151.975 94.3767 151.321 98.4291 148.569 100.023L147.358 100.763L147.205 100.542Z" fill="#F9CAAD"/>
<path d="M147.31 100.83L147.176 100.599C144.543 101.171 141.57 99.6007 139.937 96.7582C138.303 93.9158 138.433 90.6076 140.215 88.5958L140.09 88.3846L141.407 87.6259C142.108 87.2389 142.889 87.0166 143.69 86.9758C144.491 86.9351 145.29 87.0769 146.028 87.3907C147.714 88.0998 149.121 89.3413 150.035 90.9255C150.948 92.5096 151.317 94.3491 151.086 96.1629C150.988 96.9584 150.71 97.7212 150.273 98.3933C149.836 99.0655 149.251 99.6294 148.564 100.042L147.31 100.83ZM147.229 100.484L147.349 100.691L148.516 99.98C149.189 99.5718 149.761 99.0169 150.189 98.3568C150.618 97.6966 150.891 96.9483 150.99 96.1677C151.21 94.3801 150.841 92.5697 149.94 91.0103C149.038 89.4509 147.653 88.2274 145.994 87.5251C145.27 87.2177 144.486 87.0788 143.7 87.1187C142.915 87.1586 142.148 87.3764 141.459 87.7556L140.225 88.4662L140.335 88.6534L140.311 88.6822C138.539 90.6412 138.419 93.9638 140.023 96.7342C141.627 99.5046 144.587 101.094 147.19 100.513L147.229 100.484Z" fill="#0A5E8D"/>
<path d="M138.707 97.4688C140.667 100.873 144.567 102.347 147.329 100.758C150.092 99.1685 150.692 95.1065 148.718 91.7023C146.743 88.2981 142.92 86.8289 140.158 88.423C137.395 90.017 136.742 94.0694 138.707 97.4688Z" fill="white"/>
<path d="M139.6 96.9599C141.214 99.7591 144.404 100.969 146.686 99.6631C148.967 98.3571 149.438 95.0201 147.824 92.2257C146.21 89.4313 143.064 88.2213 140.796 89.5321C138.529 90.8429 137.991 94.1655 139.6 96.9599Z" fill="#F9CAAD"/>
<path d="M144.663 100.239C144.053 100.236 143.449 100.121 142.881 99.8984C141.473 99.3363 140.3 98.3095 139.557 96.9887C138.784 95.6891 138.479 94.1643 138.692 92.6674C138.765 92.0092 138.992 91.3775 139.355 90.824C139.719 90.2705 140.209 89.811 140.784 89.4831C141.36 89.1552 142.005 88.9682 142.666 88.9375C143.328 88.9068 143.988 89.0332 144.591 89.3064C145.991 89.8707 147.154 90.8978 147.887 92.2161C148.662 93.515 148.977 95.0375 148.78 96.5374C148.704 97.1913 148.48 97.8194 148.125 98.3736C147.769 98.9278 147.292 99.3935 146.729 99.7351C146.097 100.083 145.384 100.257 144.663 100.239ZM142.809 89.052C142.111 89.0457 141.425 89.2264 140.82 89.5753C140.268 89.908 139.798 90.3618 139.447 90.9025C139.096 91.4431 138.872 92.0565 138.793 92.6962C138.583 94.1651 138.883 95.6616 139.643 96.9359C140.368 98.2453 141.524 99.2633 142.915 99.8167C143.513 100.071 144.161 100.186 144.81 100.154C145.459 100.121 146.092 99.942 146.662 99.6295C147.212 99.2977 147.679 98.8436 148.026 98.3023C148.372 97.7611 148.589 97.1473 148.66 96.5086C148.854 95.0351 148.544 93.5394 147.781 92.2641C147.062 90.9615 145.917 89.9447 144.538 89.3833C143.987 89.1673 143.401 89.0549 142.809 89.052Z" fill="#0A5E8D"/>
<path d="M144.221 91.8944C144.39 91.9457 144.551 92.0183 144.702 92.1105C144.849 92.1999 144.981 92.3135 145.091 92.4466C145.206 92.5896 145.294 92.7523 145.35 92.9267C145.416 93.1181 145.449 93.3196 145.446 93.5221L144.812 93.4116C144.783 93.2092 144.705 93.0166 144.586 92.8499C144.463 92.6959 144.295 92.5836 144.106 92.5282L143.808 94.2951L144.164 94.5256C144.277 94.599 144.386 94.6791 144.49 94.7656C144.593 94.8466 144.688 94.9366 144.774 95.0345C144.86 95.1248 144.932 95.2266 144.99 95.337C145.043 95.4467 145.082 95.5629 145.105 95.6827C145.127 95.8163 145.127 95.9525 145.105 96.086C145.076 96.3028 144.993 96.5089 144.865 96.6862C144.75 96.8434 144.605 96.9757 144.438 97.0751C144.267 97.172 144.082 97.2401 143.89 97.2768C143.698 97.3111 143.503 97.324 143.309 97.3152L143.165 98.1987L142.521 98.093L142.67 97.1904C142.493 97.1173 142.33 97.0133 142.189 96.8831C142.039 96.7544 141.911 96.6019 141.81 96.4317C141.702 96.2535 141.62 96.0612 141.565 95.8604C141.509 95.6473 141.481 95.4277 141.483 95.2074L142.156 95.3178C142.159 95.4503 142.175 95.5821 142.204 95.7115C142.229 95.8329 142.27 95.9506 142.324 96.062C142.375 96.167 142.442 96.264 142.521 96.3501C142.6 96.4319 142.693 96.5001 142.795 96.5518L143.112 94.6312C142.948 94.5208 142.79 94.4103 142.631 94.2951C142.488 94.1853 142.357 94.0597 142.242 93.9206C142.135 93.7883 142.053 93.6367 142.002 93.4741C141.953 93.3012 141.942 93.1198 141.971 92.9423C141.999 92.7649 142.065 92.5957 142.165 92.4466C142.264 92.3061 142.387 92.1855 142.53 92.0913C142.677 91.9905 142.839 91.9157 143.011 91.8704C143.194 91.8215 143.383 91.7989 143.573 91.8032L143.669 91.2366L144.308 91.3422L144.221 91.8944ZM142.646 92.9987C142.629 93.0859 142.629 93.1756 142.646 93.2628C142.671 93.3475 142.709 93.4283 142.756 93.5029C142.815 93.5807 142.881 93.6531 142.953 93.7189C143.035 93.7938 143.121 93.8628 143.213 93.9254L143.467 92.4129C143.264 92.4056 143.064 92.4627 142.896 92.5762C142.769 92.6831 142.688 92.8342 142.67 92.9987H142.646ZM144.447 95.9756C144.462 95.8834 144.452 95.7891 144.418 95.7019C144.379 95.6093 144.326 95.5235 144.26 95.4474C144.185 95.3576 144.101 95.2755 144.01 95.2026C143.914 95.1258 143.813 95.0537 143.707 94.9817L143.424 96.6862C143.554 96.6919 143.683 96.6773 143.808 96.643C143.915 96.6141 144.018 96.5687 144.111 96.5086C144.198 96.4483 144.274 96.3717 144.332 96.2829C144.39 96.1888 144.429 96.0845 144.447 95.9756Z" fill="white"/>
<path d="M126.577 163.551L103.707 163.623C103.394 163.624 103.141 163.878 103.142 164.191L103.148 166.237C103.149 166.55 103.404 166.802 103.717 166.801L126.587 166.73C126.9 166.729 127.153 166.474 127.152 166.161L127.146 164.116C127.145 163.803 126.89 163.55 126.577 163.551Z" fill="#F9CAAD"/>
<path d="M103.707 166.893C103.535 166.891 103.37 166.823 103.248 166.702C103.126 166.581 103.056 166.416 103.054 166.244V164.209C103.054 164.037 103.122 163.872 103.244 163.75C103.365 163.629 103.53 163.56 103.702 163.56L126.573 163.488C126.658 163.488 126.742 163.505 126.821 163.538C126.899 163.57 126.971 163.618 127.031 163.678C127.091 163.738 127.139 163.81 127.172 163.889C127.204 163.967 127.221 164.051 127.221 164.137V166.182C127.221 166.354 127.153 166.52 127.031 166.642C126.91 166.764 126.745 166.834 126.573 166.835L103.702 166.907L103.707 166.893ZM126.573 163.642L103.697 163.714C103.571 163.716 103.45 163.768 103.361 163.858C103.271 163.947 103.219 164.068 103.217 164.194V166.244C103.217 166.372 103.268 166.494 103.358 166.584C103.448 166.674 103.57 166.725 103.697 166.725L126.568 166.657C126.695 166.657 126.817 166.607 126.907 166.517C126.998 166.427 127.048 166.305 127.048 166.177V164.132C127.048 164.068 127.035 164.005 127.01 163.947C126.986 163.888 126.949 163.835 126.904 163.791C126.817 163.7 126.698 163.646 126.573 163.642Z" fill="#0A5E8D"/>
<path d="M124.9 160.411L102.03 160.483C101.717 160.484 101.464 160.739 101.465 161.052L101.471 163.097C101.472 163.41 101.727 163.663 102.04 163.662L124.91 163.59C125.223 163.589 125.476 163.334 125.475 163.022L125.469 160.976C125.468 160.663 125.213 160.41 124.9 160.411Z" fill="#F9CAAD"/>
<path d="M102.03 163.728C101.942 163.731 101.854 163.716 101.771 163.683C101.689 163.651 101.614 163.603 101.55 163.541C101.425 163.413 101.356 163.24 101.358 163.061V161.016C101.357 160.93 101.374 160.845 101.406 160.766C101.438 160.687 101.486 160.615 101.546 160.554C101.606 160.494 101.678 160.445 101.757 160.412C101.836 160.38 101.921 160.363 102.006 160.363L124.882 160.295C125.054 160.295 125.219 160.364 125.34 160.485C125.462 160.607 125.53 160.772 125.53 160.944V162.989C125.533 163.078 125.517 163.166 125.484 163.249C125.451 163.332 125.401 163.407 125.338 163.469C125.276 163.533 125.201 163.584 125.118 163.617C125.036 163.65 124.947 163.665 124.858 163.661L102.03 163.728ZM124.896 160.483L102.021 160.555C101.893 160.555 101.771 160.605 101.681 160.695C101.591 160.785 101.54 160.908 101.54 161.035V163.08C101.54 163.208 101.591 163.33 101.681 163.42C101.771 163.51 101.893 163.56 102.021 163.56L124.896 163.488C125.023 163.488 125.146 163.438 125.236 163.348C125.326 163.258 125.376 163.136 125.376 163.008V160.963C125.371 160.839 125.319 160.722 125.229 160.636C125.14 160.55 125.02 160.502 124.896 160.502V160.483Z" fill="#0A5E8D"/>
<path d="M128.094 157.237L105.224 157.309C104.911 157.31 104.658 157.565 104.659 157.877L104.665 159.923C104.666 160.236 104.921 160.489 105.234 160.488L128.104 160.416C128.417 160.415 128.67 160.16 128.669 159.847L128.663 157.802C128.662 157.489 128.407 157.236 128.094 157.237Z" fill="#F9CAAD"/>
<path d="M105.201 160.579C105.029 160.577 104.865 160.509 104.744 160.388C104.622 160.266 104.554 160.102 104.552 159.931V157.88C104.555 157.709 104.624 157.546 104.745 157.425C104.866 157.304 105.03 157.235 105.201 157.232L128.076 157.16C128.165 157.157 128.254 157.173 128.336 157.206C128.419 157.239 128.494 157.289 128.557 157.352C128.677 157.474 128.746 157.637 128.749 157.808V159.854C128.749 159.939 128.733 160.024 128.701 160.103C128.668 160.182 128.621 160.254 128.56 160.315C128.5 160.376 128.428 160.424 128.349 160.457C128.271 160.49 128.186 160.507 128.1 160.507L105.23 160.579H105.201ZM128.067 157.333L105.191 157.4C105.064 157.4 104.942 157.451 104.852 157.541C104.762 157.631 104.711 157.753 104.711 157.88V159.931C104.711 160.058 104.762 160.18 104.852 160.27C104.942 160.36 105.064 160.411 105.191 160.411L128.062 160.343C128.189 160.343 128.311 160.293 128.401 160.203C128.492 160.113 128.542 159.991 128.542 159.863V157.818C128.542 157.692 128.492 157.571 128.403 157.482C128.32 157.394 128.206 157.341 128.086 157.333H128.067Z" fill="#0A5E8D"/>
<path d="M127.433 150.937L104.562 151.01C104.412 151.01 104.268 150.951 104.161 150.846C104.054 150.74 103.993 150.598 103.99 150.448V148.398C103.99 148.323 104.004 148.25 104.032 148.181C104.06 148.112 104.101 148.05 104.153 147.997C104.206 147.945 104.268 147.903 104.336 147.874C104.405 147.846 104.478 147.831 104.553 147.831L127.428 147.764C127.502 147.763 127.576 147.777 127.644 147.805C127.713 147.833 127.776 147.874 127.828 147.927C127.881 147.979 127.923 148.041 127.951 148.109C127.98 148.178 127.995 148.251 127.995 148.326V150.371C127.995 150.445 127.981 150.519 127.953 150.587C127.925 150.656 127.884 150.719 127.832 150.771C127.779 150.824 127.717 150.866 127.649 150.894C127.58 150.923 127.507 150.937 127.433 150.937Z" fill="#F9CAAD"/>
<path d="M104.557 151.096C104.386 151.093 104.222 151.024 104.101 150.903C103.98 150.782 103.911 150.619 103.909 150.448V148.398C103.91 148.226 103.979 148.062 104.1 147.941C104.221 147.819 104.386 147.751 104.557 147.749L127.432 147.677C127.518 147.677 127.603 147.693 127.682 147.725C127.761 147.758 127.833 147.805 127.894 147.865C127.955 147.926 128.003 147.997 128.036 148.076C128.069 148.155 128.086 148.24 128.086 148.326V150.371C128.089 150.459 128.074 150.548 128.041 150.63C128.009 150.713 127.961 150.788 127.898 150.851C127.836 150.914 127.761 150.964 127.678 150.997C127.596 151.03 127.507 151.046 127.418 151.043L104.548 151.115L104.557 151.096ZM127.423 147.845L104.548 147.917C104.42 147.917 104.298 147.968 104.208 148.058C104.118 148.148 104.067 148.27 104.067 148.398V150.448C104.067 150.575 104.118 150.697 104.208 150.787C104.298 150.877 104.42 150.928 104.548 150.928L127.423 150.861C127.55 150.859 127.67 150.807 127.759 150.717C127.804 150.672 127.841 150.619 127.865 150.561C127.89 150.502 127.903 150.439 127.903 150.376V148.33C127.904 148.267 127.891 148.204 127.868 148.146C127.844 148.087 127.808 148.034 127.764 147.989C127.719 147.944 127.666 147.908 127.608 147.883C127.549 147.859 127.486 147.846 127.423 147.845Z" fill="#0A5E8D"/>
<path d="M129.145 144.582L106.275 144.654C105.962 144.655 105.709 144.91 105.71 145.222L105.716 147.268C105.717 147.581 105.972 147.834 106.285 147.833L129.155 147.761C129.468 147.76 129.721 147.505 129.72 147.192L129.713 145.147C129.713 144.834 129.458 144.581 129.145 144.582Z" fill="#F9CAAD"/>
<path d="M106.272 147.922C106.1 147.922 105.935 147.854 105.814 147.732C105.692 147.611 105.624 147.446 105.624 147.274V145.229C105.623 145.143 105.639 145.058 105.672 144.979C105.704 144.9 105.752 144.828 105.812 144.767C105.872 144.706 105.944 144.658 106.023 144.625C106.102 144.593 106.187 144.576 106.272 144.576L129.143 144.504C129.315 144.504 129.481 144.572 129.603 144.693C129.725 144.815 129.795 144.979 129.796 145.152V147.202C129.797 147.287 129.781 147.372 129.749 147.452C129.717 147.531 129.669 147.603 129.609 147.663C129.548 147.724 129.476 147.771 129.397 147.803C129.318 147.836 129.233 147.851 129.148 147.85L106.277 147.922H106.272ZM129.138 144.676L106.267 144.744C106.14 144.744 106.018 144.794 105.928 144.884C105.838 144.974 105.787 145.096 105.787 145.224V147.269C105.787 147.333 105.8 147.396 105.825 147.454C105.85 147.513 105.886 147.566 105.931 147.61C106.021 147.699 106.141 147.749 106.267 147.749L129.138 147.677C129.201 147.678 129.264 147.666 129.322 147.642C129.381 147.618 129.434 147.583 129.479 147.538C129.523 147.493 129.559 147.44 129.583 147.382C129.607 147.323 129.619 147.26 129.618 147.197V145.147C129.616 145.021 129.564 144.902 129.474 144.814C129.384 144.726 129.264 144.676 129.138 144.676Z" fill="#0A5E8D"/>
<path d="M128.095 157.28L105.225 157.352C105.074 157.352 104.93 157.293 104.822 157.187C104.715 157.08 104.655 156.936 104.653 156.786V154.74C104.652 154.593 104.709 154.451 104.811 154.345C104.914 154.239 105.054 154.177 105.201 154.174L128.076 154.102C128.227 154.102 128.371 154.161 128.477 154.268C128.583 154.374 128.643 154.518 128.643 154.668V156.714C128.644 156.861 128.588 157.003 128.485 157.109C128.383 157.215 128.243 157.276 128.095 157.28Z" fill="#F9CAAD"/>
<path d="M105.201 157.439C105.029 157.437 104.865 157.369 104.744 157.247C104.622 157.126 104.554 156.962 104.552 156.79V154.74C104.554 154.568 104.622 154.404 104.744 154.282C104.865 154.159 105.029 154.09 105.201 154.087L128.076 154.02C128.165 154.018 128.253 154.033 128.335 154.065C128.418 154.097 128.493 154.146 128.557 154.207C128.68 154.336 128.749 154.509 128.749 154.687V156.733C128.749 156.818 128.733 156.903 128.701 156.982C128.668 157.062 128.621 157.134 128.56 157.194C128.5 157.255 128.428 157.303 128.349 157.336C128.271 157.369 128.186 157.386 128.1 157.386L105.23 157.458L105.201 157.439ZM128.067 154.188L105.191 154.26C105.064 154.26 104.942 154.311 104.852 154.401C104.762 154.491 104.711 154.613 104.711 154.74V156.79C104.711 156.918 104.762 157.04 104.852 157.13C104.942 157.22 105.064 157.271 105.191 157.271L128.067 157.199C128.194 157.199 128.316 157.148 128.406 157.058C128.496 156.968 128.547 156.846 128.547 156.718V154.673C128.547 154.546 128.496 154.424 128.406 154.333C128.316 154.243 128.194 154.193 128.067 154.193V154.188Z" fill="#0A5E8D"/>
<path d="M130.613 154.126L107.742 154.198C107.668 154.198 107.594 154.184 107.526 154.156C107.457 154.128 107.394 154.087 107.342 154.035C107.289 153.983 107.247 153.92 107.219 153.852C107.19 153.783 107.175 153.71 107.175 153.636V151.586C107.175 151.511 107.189 151.438 107.217 151.369C107.245 151.301 107.286 151.238 107.338 151.185C107.39 151.133 107.453 151.091 107.521 151.062C107.59 151.034 107.663 151.019 107.737 151.019L130.608 150.952C130.682 150.951 130.756 150.965 130.824 150.993C130.893 151.021 130.956 151.062 131.008 151.115C131.061 151.167 131.103 151.229 131.131 151.298C131.16 151.366 131.175 151.439 131.175 151.514V153.559C131.175 153.708 131.116 153.852 131.01 153.958C130.905 154.064 130.762 154.124 130.613 154.126Z" fill="#F9CAAD"/>
<path d="M107.742 154.26C107.57 154.259 107.405 154.19 107.283 154.069C107.161 153.948 107.091 153.784 107.089 153.612V151.566C107.089 151.394 107.157 151.228 107.278 151.105C107.4 150.982 107.564 150.911 107.737 150.909L130.608 150.841C130.78 150.841 130.945 150.91 131.066 151.031C131.188 151.153 131.256 151.318 131.256 151.49V153.535C131.259 153.624 131.243 153.712 131.21 153.795C131.177 153.878 131.127 153.953 131.064 154.015C131.005 154.076 130.934 154.125 130.856 154.158C130.777 154.191 130.693 154.208 130.608 154.207L107.737 154.279L107.742 154.26ZM130.608 151.009L107.733 151.082C107.605 151.082 107.483 151.132 107.393 151.222C107.303 151.312 107.252 151.434 107.252 151.562V153.612C107.252 153.739 107.303 153.861 107.393 153.951C107.483 154.041 107.605 154.092 107.733 154.092L130.603 154.025C130.73 154.025 130.853 153.974 130.943 153.884C131.033 153.794 131.083 153.672 131.083 153.545V151.499C131.085 151.436 131.073 151.373 131.05 151.314C131.027 151.255 130.992 151.201 130.948 151.155C130.904 151.11 130.851 151.073 130.792 151.048C130.734 151.023 130.671 151.01 130.608 151.009Z" fill="#0A5E8D"/>
<path d="M103.371 144.657L126.246 144.729C126.396 144.728 126.539 144.668 126.646 144.562C126.752 144.456 126.812 144.313 126.813 144.163V142.122C126.814 142.048 126.799 141.974 126.772 141.906C126.744 141.837 126.702 141.774 126.65 141.722C126.598 141.669 126.536 141.627 126.467 141.599C126.399 141.57 126.325 141.555 126.251 141.555L103.376 141.483C103.225 141.483 103.081 141.543 102.975 141.649C102.869 141.756 102.809 141.9 102.809 142.05V144.095C102.809 144.244 102.868 144.387 102.973 144.493C103.079 144.598 103.222 144.657 103.371 144.657Z" fill="#F9CAAD"/>
<path d="M126.246 144.811L103.371 144.744C103.285 144.744 103.2 144.727 103.121 144.694C103.042 144.661 102.971 144.613 102.91 144.552C102.85 144.491 102.802 144.419 102.77 144.34C102.738 144.261 102.722 144.176 102.722 144.091V142.045C102.725 141.873 102.794 141.709 102.917 141.588C103.039 141.467 103.203 141.398 103.375 141.397L126.251 141.464C126.336 141.464 126.42 141.481 126.499 141.514C126.577 141.547 126.648 141.595 126.707 141.656C126.77 141.719 126.82 141.794 126.853 141.876C126.886 141.959 126.902 142.048 126.899 142.136V144.182C126.899 144.354 126.831 144.519 126.709 144.64C126.588 144.762 126.423 144.83 126.251 144.83L126.246 144.811ZM103.38 141.565C103.253 141.565 103.131 141.616 103.041 141.706C102.951 141.796 102.9 141.918 102.9 142.045V144.091C102.9 144.154 102.912 144.216 102.936 144.275C102.959 144.333 102.995 144.387 103.039 144.432C103.129 144.52 103.249 144.57 103.375 144.571L126.251 144.643C126.314 144.643 126.377 144.631 126.435 144.607C126.494 144.583 126.547 144.548 126.592 144.504C126.636 144.459 126.671 144.405 126.695 144.347C126.719 144.288 126.731 144.226 126.731 144.163V142.122C126.731 141.995 126.68 141.873 126.59 141.783C126.5 141.693 126.378 141.642 126.251 141.642L103.375 141.57L103.38 141.565Z" fill="#0A5E8D"/>
<path d="M105.801 135.174L128.677 135.242C128.751 135.242 128.824 135.228 128.893 135.2C128.962 135.172 129.024 135.131 129.077 135.079C129.13 135.027 129.172 134.964 129.2 134.896C129.229 134.827 129.243 134.754 129.243 134.68V132.634C129.244 132.56 129.23 132.487 129.202 132.418C129.174 132.349 129.133 132.287 129.08 132.234C129.028 132.181 128.966 132.14 128.898 132.111C128.829 132.083 128.756 132.068 128.681 132.068L105.806 131.996C105.657 131.996 105.513 132.055 105.407 132.16C105.301 132.265 105.241 132.408 105.239 132.558V134.608C105.239 134.682 105.253 134.756 105.281 134.824C105.309 134.893 105.35 134.955 105.402 135.008C105.454 135.061 105.517 135.103 105.585 135.131C105.654 135.16 105.727 135.174 105.801 135.174Z" fill="#F9CAAD"/>
<path d="M128.677 135.328L105.801 135.261C105.629 135.258 105.465 135.187 105.345 135.064C105.284 135.005 105.235 134.934 105.202 134.856C105.169 134.777 105.152 134.693 105.153 134.608V132.558C105.152 132.473 105.169 132.388 105.202 132.31C105.235 132.231 105.284 132.161 105.345 132.101C105.408 132.038 105.483 131.989 105.565 131.956C105.648 131.922 105.736 131.907 105.825 131.909L128.701 131.981C128.786 131.981 128.87 131.998 128.948 132.031C129.027 132.064 129.098 132.112 129.157 132.174C129.22 132.236 129.27 132.311 129.303 132.394C129.336 132.476 129.352 132.565 129.349 132.654V134.699C129.349 134.785 129.332 134.869 129.299 134.948C129.266 135.027 129.218 135.099 129.157 135.159C129.097 135.219 129.025 135.267 128.945 135.299C128.866 135.332 128.781 135.348 128.696 135.347L128.677 135.328ZM105.801 135.088L128.677 135.16C128.804 135.16 128.926 135.109 129.016 135.019C129.106 134.929 129.157 134.807 129.157 134.68V132.634C129.157 132.571 129.145 132.509 129.121 132.45C129.097 132.392 129.062 132.338 129.018 132.294C128.929 132.203 128.808 132.151 128.681 132.15L105.806 132.082C105.68 132.083 105.559 132.133 105.47 132.222C105.379 132.31 105.328 132.431 105.326 132.558V134.608C105.326 134.734 105.376 134.854 105.465 134.944C105.508 134.99 105.56 135.027 105.618 135.052C105.676 135.076 105.738 135.089 105.801 135.088Z" fill="#0A5E8D"/>
<path d="M102.821 138.909L102.815 140.955C102.814 141.267 103.067 141.522 103.38 141.523L126.25 141.595C126.563 141.596 126.818 141.343 126.819 141.03L126.825 138.985C126.826 138.672 126.573 138.417 126.26 138.416L103.39 138.344C103.077 138.343 102.822 138.596 102.821 138.909Z" fill="#F9CAAD"/>
<path d="M126.246 141.671L103.371 141.599C103.285 141.599 103.2 141.582 103.121 141.549C103.042 141.516 102.971 141.468 102.91 141.407C102.85 141.346 102.802 141.274 102.77 141.195C102.738 141.116 102.722 141.031 102.722 140.946V138.9C102.725 138.728 102.794 138.564 102.917 138.443C103.039 138.322 103.203 138.253 103.375 138.252L126.251 138.324C126.336 138.324 126.42 138.34 126.499 138.373C126.577 138.406 126.648 138.455 126.707 138.516C126.771 138.578 126.821 138.653 126.854 138.736C126.887 138.819 126.902 138.907 126.899 138.996V141.042C126.894 141.211 126.823 141.372 126.701 141.489C126.579 141.607 126.415 141.672 126.246 141.671ZM103.38 138.425C103.253 138.425 103.131 138.476 103.041 138.566C102.951 138.656 102.9 138.778 102.9 138.905V140.955C102.899 141.018 102.91 141.08 102.934 141.138C102.958 141.196 102.994 141.248 103.039 141.291C103.128 141.382 103.249 141.434 103.375 141.435L126.251 141.507C126.378 141.507 126.5 141.457 126.59 141.367C126.68 141.277 126.731 141.155 126.731 141.027V138.982C126.731 138.855 126.68 138.732 126.59 138.642C126.5 138.552 126.378 138.502 126.251 138.502L103.375 138.435L103.38 138.425Z" fill="#0A5E8D"/>
<path d="M104.253 135.73L104.246 137.776C104.245 138.089 104.498 138.343 104.811 138.344L127.682 138.416C127.995 138.417 128.249 138.164 128.25 137.851L128.257 135.806C128.258 135.493 128.005 135.238 127.692 135.237L104.821 135.165C104.508 135.164 104.254 135.417 104.253 135.73Z" fill="#F9CAAD"/>
<path d="M127.678 138.492L104.807 138.425C104.635 138.422 104.471 138.353 104.35 138.231C104.228 138.109 104.16 137.944 104.159 137.772V135.722C104.161 135.55 104.231 135.386 104.353 135.265C104.475 135.143 104.64 135.075 104.812 135.074L127.682 135.146C127.772 135.142 127.86 135.157 127.943 135.19C128.026 135.223 128.101 135.273 128.163 135.338C128.226 135.4 128.276 135.475 128.308 135.558C128.341 135.64 128.355 135.729 128.35 135.818V137.863C128.35 137.948 128.333 138.033 128.301 138.111C128.268 138.19 128.22 138.261 128.16 138.322C128.1 138.382 128.028 138.429 127.95 138.462C127.871 138.495 127.787 138.511 127.702 138.511L127.678 138.492ZM104.802 138.252L127.673 138.324C127.799 138.324 127.92 138.274 128.009 138.185C128.054 138.14 128.091 138.087 128.115 138.029C128.14 137.97 128.153 137.908 128.153 137.844V135.799C128.153 135.671 128.103 135.549 128.012 135.459C127.922 135.369 127.8 135.318 127.673 135.318L104.802 135.251C104.675 135.251 104.553 135.302 104.463 135.392C104.373 135.482 104.322 135.604 104.322 135.731V137.777C104.322 137.904 104.373 138.026 104.463 138.116C104.553 138.206 104.675 138.257 104.802 138.257V138.252Z" fill="#0A5E8D"/>
<path d="M132.275 157.184C136.17 155.033 138.294 149.766 137.16 144.22C136.026 138.675 132.044 134.742 127.654 134.257L127.577 133.868L125.136 134.349C119.852 135.438 116.624 141.608 117.969 148.138C119.314 154.668 124.694 159.071 129.979 157.986L132.347 157.559L132.275 157.184Z" fill="#F9CAAD"/>
<path d="M128.36 158.279C126.184 158.24 124.09 157.441 122.441 156.022C120.11 153.982 118.51 151.235 117.887 148.2C117.263 145.166 117.65 142.011 118.988 139.217C120.352 136.591 122.528 134.848 125.117 134.32L127.644 133.801L127.725 134.209C132.231 134.737 136.137 138.852 137.242 144.23C138.346 149.607 136.358 154.999 132.371 157.237L132.462 157.683L130.007 158.12C129.465 158.228 128.913 158.281 128.36 158.279ZM127.509 133.988L125.151 134.469C122.614 134.992 120.477 136.701 119.136 139.27C117.816 142.032 117.435 145.149 118.051 148.148C118.668 151.146 120.248 153.861 122.552 155.878C124.8 157.722 127.437 158.452 129.974 157.928L132.26 157.52L132.178 157.122L132.231 157.093C136.19 154.913 138.183 149.627 137.078 144.239C135.973 138.852 132.102 134.838 127.649 134.349H127.586L127.509 133.988Z" fill="#0A5E8D"/>
<path d="M139.6 143.735C140.945 150.265 137.679 156.517 132.361 157.602C127.043 158.687 121.75 154.202 120.409 147.677C119.069 141.152 122.278 134.978 127.577 133.888C132.875 132.798 138.26 137.21 139.6 143.735Z" fill="white"/>
<path d="M137.89 144.095C138.99 149.454 136.295 154.591 131.938 155.484C127.581 156.377 123.225 152.69 122.124 147.322C121.024 141.954 123.662 136.889 128.014 135.995C132.366 135.102 136.79 138.732 137.89 144.095Z" fill="#F9CAAD"/>
<path d="M130.622 155.7C128.83 155.669 127.107 155.002 125.761 153.818C123.829 152.141 122.52 149.863 122.043 147.351C120.933 141.949 123.604 136.826 127.995 135.923C129.097 135.719 130.232 135.766 131.314 136.063C132.396 136.36 133.396 136.898 134.239 137.638C136.186 139.294 137.508 141.566 137.986 144.076C138.53 146.589 138.191 149.212 137.025 151.504C136.54 152.518 135.833 153.41 134.955 154.113C134.078 154.817 133.053 155.313 131.958 155.566C131.518 155.656 131.071 155.701 130.622 155.7ZM129.354 135.957C128.909 135.957 128.464 136.002 128.028 136.091C123.729 136.975 121.12 142.007 122.206 147.312C122.674 149.786 123.96 152.032 125.857 153.689C126.669 154.417 127.637 154.95 128.687 155.247C129.737 155.543 130.841 155.595 131.914 155.398C132.992 155.155 134.001 154.672 134.865 153.984C135.729 153.296 136.427 152.422 136.905 151.427C138.043 149.166 138.368 146.583 137.828 144.11C137.357 141.637 136.053 139.401 134.134 137.772C132.802 136.626 131.111 135.984 129.354 135.957Z" fill="#0A5E8D"/>
<path d="M129.666 140.768C129.964 140.743 130.264 140.754 130.56 140.802C130.848 140.849 131.127 140.941 131.386 141.075C131.656 141.22 131.899 141.412 132.102 141.642C132.328 141.902 132.51 142.197 132.64 142.516L131.573 142.761C131.399 142.459 131.153 142.205 130.858 142.021C130.565 141.858 130.231 141.786 129.897 141.815L130.579 144.777L131.28 144.912C131.511 144.955 131.732 145.012 131.953 145.075C132.163 145.139 132.369 145.217 132.568 145.31C132.758 145.399 132.935 145.512 133.096 145.646C133.258 145.784 133.397 145.946 133.509 146.126C133.627 146.323 133.711 146.537 133.759 146.76C133.845 147.122 133.845 147.498 133.759 147.86C133.682 148.18 133.539 148.48 133.341 148.743C133.139 149.004 132.894 149.228 132.616 149.406C132.338 149.588 132.04 149.736 131.727 149.848L132.068 151.326L130.997 151.576L130.646 150.068C130.319 150.072 129.994 150.018 129.685 149.91C129.365 149.797 129.063 149.635 128.792 149.43C128.508 149.223 128.255 148.975 128.043 148.695C127.814 148.404 127.629 148.08 127.495 147.735L128.624 147.48C128.71 147.688 128.818 147.886 128.946 148.071C129.066 148.246 129.207 148.407 129.364 148.551C129.507 148.68 129.669 148.787 129.844 148.868C130.02 148.949 130.208 148.998 130.401 149.012L129.661 145.795C129.33 145.733 129.013 145.661 128.701 145.574C128.403 145.499 128.115 145.386 127.846 145.238C127.591 145.098 127.364 144.914 127.173 144.696C126.977 144.451 126.842 144.163 126.779 143.855C126.711 143.566 126.711 143.266 126.779 142.977C126.842 142.694 126.958 142.425 127.12 142.184C127.289 141.933 127.499 141.71 127.74 141.527C127.994 141.33 128.273 141.168 128.571 141.047L128.355 140.086L129.431 139.841L129.666 140.768ZM127.913 143.519C127.942 143.668 128.006 143.808 128.1 143.927C128.191 144.046 128.302 144.148 128.427 144.23C128.566 144.321 128.716 144.394 128.874 144.446C129.051 144.511 129.232 144.564 129.416 144.604L128.835 142.064C128.511 142.183 128.235 142.404 128.047 142.693C127.971 142.815 127.919 142.951 127.896 143.093C127.873 143.235 127.879 143.38 127.913 143.519ZM132.659 147.024C132.626 146.87 132.549 146.728 132.438 146.616C132.317 146.494 132.178 146.392 132.025 146.314C131.85 146.223 131.667 146.15 131.477 146.098C131.275 146.037 131.069 145.984 130.858 145.939L131.516 148.796C131.722 148.723 131.916 148.616 132.087 148.479C132.242 148.36 132.375 148.215 132.481 148.052C132.576 147.906 132.643 147.743 132.678 147.572C132.71 147.39 132.704 147.203 132.659 147.024Z" fill="white"/>
<path d="M140.191 163.58L117.321 163.652C117.17 163.652 117.026 163.592 116.92 163.486C116.814 163.379 116.754 163.235 116.754 163.085V161.04C116.754 160.889 116.814 160.745 116.92 160.639C117.026 160.533 117.17 160.473 117.321 160.473L140.191 160.401C140.341 160.401 140.486 160.461 140.592 160.567C140.698 160.673 140.758 160.817 140.758 160.968V163.013C140.759 163.088 140.744 163.162 140.716 163.231C140.688 163.3 140.646 163.362 140.593 163.415C140.541 163.468 140.478 163.51 140.409 163.538C140.34 163.566 140.266 163.58 140.191 163.58Z" fill="#F9CAAD"/>
<path d="M117.316 163.728C117.144 163.728 116.979 163.66 116.857 163.539C116.736 163.417 116.667 163.252 116.667 163.08V161.04C116.663 160.951 116.677 160.862 116.709 160.779C116.741 160.697 116.791 160.622 116.855 160.56C116.917 160.496 116.992 160.447 117.075 160.414C117.158 160.38 117.246 160.365 117.335 160.367L140.206 160.3C140.376 160.301 140.54 160.368 140.662 160.487C140.725 160.55 140.775 160.625 140.808 160.708C140.841 160.79 140.857 160.879 140.854 160.968V163.013C140.855 163.099 140.838 163.183 140.806 163.263C140.774 163.342 140.726 163.414 140.666 163.474C140.606 163.535 140.534 163.583 140.455 163.616C140.376 163.649 140.291 163.666 140.206 163.666L117.335 163.733L117.316 163.728ZM140.186 160.483L117.316 160.555C117.189 160.555 117.066 160.605 116.976 160.695C116.886 160.785 116.836 160.908 116.836 161.035V163.08C116.836 163.208 116.886 163.33 116.976 163.42C117.066 163.51 117.189 163.56 117.316 163.56L140.186 163.488C140.314 163.488 140.436 163.438 140.526 163.348C140.616 163.258 140.667 163.136 140.667 163.008V160.963C140.667 160.835 140.616 160.713 140.526 160.623C140.436 160.533 140.314 160.483 140.186 160.483Z" fill="#0A5E8D"/>
<path d="M141.905 157.223L119.035 157.295C118.722 157.295 118.469 157.55 118.47 157.863L118.476 159.908C118.477 160.221 118.732 160.474 119.045 160.473L141.915 160.401C142.228 160.4 142.481 160.146 142.48 159.833L142.474 157.787C142.473 157.475 142.218 157.222 141.905 157.223Z" fill="#F9CAAD"/>
<path d="M119.036 160.564C118.863 160.564 118.698 160.496 118.575 160.375C118.453 160.253 118.384 160.088 118.382 159.916V157.871C118.382 157.785 118.398 157.7 118.43 157.621C118.463 157.542 118.51 157.47 118.571 157.409C118.631 157.349 118.703 157.3 118.782 157.268C118.861 157.235 118.945 157.218 119.031 157.218L141.901 157.146C142.073 157.147 142.237 157.216 142.358 157.337C142.48 157.458 142.548 157.622 142.55 157.794V159.839C142.555 159.928 142.542 160.017 142.509 160.1C142.477 160.183 142.427 160.258 142.362 160.319C142.3 160.383 142.225 160.433 142.143 160.466C142.06 160.499 141.971 160.515 141.882 160.512L119.012 160.584L119.036 160.564ZM141.901 157.319L119.031 157.386C118.967 157.386 118.904 157.399 118.846 157.424C118.787 157.448 118.734 157.484 118.69 157.53C118.601 157.619 118.551 157.74 118.55 157.866V159.916C118.55 160.043 118.601 160.166 118.691 160.256C118.781 160.346 118.903 160.396 119.031 160.396L141.901 160.329C142.029 160.329 142.151 160.278 142.241 160.188C142.331 160.098 142.382 159.976 142.382 159.849V157.799C142.382 157.736 142.369 157.673 142.345 157.615C142.321 157.557 142.286 157.504 142.241 157.459C142.196 157.415 142.143 157.379 142.085 157.355C142.027 157.331 141.964 157.319 141.901 157.319Z" fill="#0A5E8D"/>
<path d="M143.371 163.561L120.5 163.633C120.187 163.634 119.934 163.888 119.935 164.201L119.942 166.246C119.943 166.559 120.197 166.812 120.51 166.811L143.381 166.739C143.694 166.738 143.947 166.484 143.946 166.171L143.939 164.126C143.938 163.813 143.684 163.56 143.371 163.561Z" fill="#F9CAAD"/>
<path d="M120.501 166.902C120.412 166.905 120.323 166.889 120.24 166.856C120.158 166.823 120.083 166.773 120.02 166.71C119.9 166.588 119.831 166.425 119.828 166.254V164.209C119.828 164.123 119.844 164.038 119.876 163.959C119.908 163.88 119.956 163.808 120.016 163.747C120.077 163.686 120.148 163.638 120.227 163.605C120.306 163.573 120.391 163.556 120.477 163.556L143.352 163.488C143.437 163.488 143.521 163.505 143.6 163.538C143.679 163.57 143.75 163.618 143.81 163.678C143.871 163.738 143.918 163.81 143.951 163.889C143.984 163.967 144 164.051 144 164.137V166.182C144 166.354 143.932 166.52 143.811 166.642C143.689 166.764 143.524 166.834 143.352 166.835L120.477 166.907L120.501 166.902ZM143.366 163.652L120.491 163.724C120.365 163.724 120.244 163.774 120.155 163.863C120.11 163.908 120.075 163.961 120.051 164.019C120.027 164.078 120.015 164.141 120.015 164.204V166.254C120.015 166.381 120.066 166.503 120.156 166.594C120.246 166.684 120.368 166.734 120.496 166.734L143.371 166.662C143.498 166.662 143.621 166.612 143.711 166.522C143.801 166.431 143.851 166.309 143.851 166.182V164.137C143.851 164.073 143.838 164.01 143.814 163.952C143.789 163.893 143.753 163.84 143.707 163.796C143.663 163.75 143.61 163.714 143.551 163.69C143.493 163.665 143.43 163.652 143.366 163.652Z" fill="#0A5E8D"/>
<path d="M38.6169 21.0686L34.3752 20.5885V20.3244C34.4134 19.9472 34.509 19.5781 34.6587 19.2297C34.8654 18.7525 35.1678 18.3227 35.5473 17.9669L38.6169 21.0686Z" fill="#F9CAAD"/>
<path d="M66.2574 24.6217C66.3339 24.7451 66.4453 24.843 66.5774 24.9032C66.7096 24.9634 66.8566 24.983 67 24.9598C67.1433 24.9365 67.2766 24.8713 67.3829 24.7724C67.4892 24.6734 67.5638 24.5453 67.5973 24.404C67.6307 24.2628 67.6216 24.1148 67.571 23.9787C67.5204 23.8427 67.4306 23.7246 67.313 23.6395C67.1953 23.5544 67.0551 23.5061 66.91 23.5006C66.7649 23.4951 66.6214 23.5326 66.4976 23.6086C66.332 23.7117 66.2138 23.876 66.1689 24.0657C66.1239 24.2555 66.1557 24.4553 66.2574 24.6217Z" fill="#BB9BD0"/>
<path d="M45.1548 40.1735C44.9594 40.0634 44.7357 40.0138 44.512 40.0308C44.2883 40.0479 44.0748 40.1309 43.8983 40.2693C43.7218 40.4078 43.5904 40.5954 43.5207 40.8085C43.451 41.0217 43.4461 41.2507 43.5067 41.4666C43.5673 41.6825 43.6905 41.8756 43.8609 42.0214C44.0313 42.1672 44.2412 42.2592 44.4639 42.2858C44.6867 42.3124 44.9123 42.2723 45.1123 42.1706C45.3122 42.069 45.4775 41.9103 45.5872 41.7147C45.6605 41.5853 45.7075 41.4426 45.7254 41.2949C45.7434 41.1472 45.732 40.9975 45.6918 40.8542C45.6516 40.711 45.5835 40.5771 45.4913 40.4603C45.3992 40.3434 45.2848 40.246 45.1548 40.1735Z" fill="#E3D8FB"/>
<path d="M10.3136 45.4935C10.162 45.4083 9.98851 45.37 9.81512 45.3835C9.64174 45.3969 9.47622 45.4614 9.33953 45.5688C9.20283 45.6763 9.1011 45.8219 9.0472 45.9871C8.9933 46.1524 8.98965 46.3299 9.03671 46.4973C9.08378 46.6646 9.17944 46.8142 9.3116 46.9272C9.44377 47.0402 9.60649 47.1115 9.77918 47.132C9.95187 47.1525 10.1268 47.1214 10.2818 47.0425C10.4367 46.9637 10.5648 46.8407 10.6499 46.689C10.7069 46.5886 10.7434 46.4779 10.7574 46.3632C10.7714 46.2486 10.7625 46.1323 10.7312 46.0212C10.6999 45.91 10.6469 45.8061 10.5752 45.7155C10.5036 45.625 10.4146 45.5495 10.3136 45.4935Z" fill="#F5E5BC"/>
<path fill-rule="evenodd" clip-rule="evenodd" d="M95.3631 33.6628C95.3631 35.0181 94.9609 36.343 94.2075 37.4698C93.4541 38.5967 92.3832 39.4749 91.1303 39.9933C89.8775 40.5117 88.499 40.6471 87.1691 40.3824C85.8393 40.1176 84.6179 39.4646 83.6594 38.5059C82.7009 37.5472 82.0484 36.3259 81.7845 34.9965C81.5205 33.6671 81.6569 32.2893 82.1765 31.0374C82.6961 29.7855 83.5754 28.7158 84.7033 27.9635C85.8312 27.2112 87.157 26.8102 88.513 26.8111C89.413 26.8111 90.3041 26.9884 91.1355 27.3328C91.9669 27.6772 92.7223 28.1819 93.3584 28.8182C93.9946 29.4545 94.4991 30.2099 94.843 31.0411C95.187 31.8724 95.3637 32.7632 95.3631 33.6628Z" fill="#F5E5BC"/>
<path d="M89.6274 39.6117C88.2536 39.6155 86.9096 39.212 85.7652 38.4523C84.6208 37.6926 83.7275 36.6107 83.1982 35.3435C82.669 34.0764 82.5276 32.6808 82.7919 31.3333C83.0562 29.9857 83.7143 28.7468 84.683 27.7732C85.6518 26.7995 86.8876 26.1348 88.2343 25.8632C89.581 25.5916 90.978 25.7252 92.2487 26.2472C93.5193 26.7692 94.6066 27.6561 95.3731 28.7957C96.1395 29.9353 96.5506 31.2765 96.5544 32.6497C96.5569 34.4903 95.8292 36.2568 94.5307 37.5618C93.2322 38.8669 91.4689 39.6041 89.6274 39.6117ZM89.6274 25.9085C88.2887 25.9075 86.9798 26.3037 85.8665 27.0468C84.7532 27.7899 83.8855 28.8466 83.3734 30.0829C82.8614 31.3192 82.7279 32.6797 82.9898 33.9919C83.2518 35.3041 83.8975 36.5091 84.8452 37.4543C85.7928 38.3995 86.9998 39.0423 88.3132 39.3014C89.6266 39.5604 90.9874 39.4241 92.2232 38.9096C93.459 38.3951 94.5143 37.5256 95.2554 36.4113C95.9965 35.2969 96.39 33.9878 96.3862 32.6497C96.3748 30.8646 95.658 29.1564 94.392 27.8972C93.126 26.6381 91.4134 25.9302 89.6274 25.9277V25.9085Z" fill="#0A5E8D"/>
<path d="M170.051 18.9896V18.9368L165.728 20.0363L168.787 23.1813L168.96 23.0372C169.477 22.5146 169.849 21.8668 170.04 21.1573C170.232 20.4479 170.235 19.7009 170.051 18.9896Z" fill="#F5E5BC"/>
<path d="M147.531 13.444C147.663 13.3304 147.825 13.2583 147.998 13.237C148.17 13.2157 148.345 13.2459 148.501 13.324C148.656 13.4021 148.785 13.5245 148.87 13.6758C148.956 13.827 148.995 14.0002 148.982 14.1735C148.97 14.3469 148.906 14.5125 148.799 14.6496C148.692 14.7866 148.546 14.8888 148.381 14.9433C148.216 14.9979 148.039 15.0022 147.871 14.9558C147.703 14.9094 147.553 14.8144 147.44 14.6827C147.364 14.5957 147.306 14.4944 147.269 14.3848C147.233 14.2753 147.218 14.1595 147.227 14.0443C147.235 13.9291 147.267 13.8168 147.319 13.7137C147.371 13.6107 147.443 13.519 147.531 13.444Z" fill="#F9CAAD"/>
<path d="M103.76 11.605C103.815 11.542 103.883 11.4915 103.96 11.4573C104.036 11.423 104.119 11.4056 104.203 11.4064C104.287 11.4072 104.369 11.4261 104.445 11.4618C104.521 11.4975 104.588 11.5492 104.642 11.6133C104.696 11.6774 104.736 11.7524 104.758 11.8332C104.78 11.914 104.785 11.9986 104.771 12.0813C104.758 12.1639 104.726 12.2427 104.679 12.3122C104.633 12.3816 104.571 12.4401 104.5 12.4837C104.381 12.5558 104.241 12.5831 104.104 12.5607C103.967 12.5383 103.842 12.4676 103.753 12.3614C103.663 12.2553 103.615 12.1207 103.616 11.9819C103.618 11.8432 103.668 11.7095 103.76 11.605Z" fill="#BB9BD0"/>
<path d="M181.138 52.8156C181.255 52.7228 181.404 52.6789 181.553 52.6931C181.702 52.7073 181.84 52.7785 181.938 52.8918C182.036 53.0051 182.086 53.1518 182.079 53.3013C182.071 53.4509 182.006 53.5916 181.897 53.6943C181.84 53.7481 181.772 53.7898 181.699 53.8168C181.625 53.8439 181.547 53.8557 181.468 53.8517C181.39 53.8477 181.313 53.8278 181.243 53.7934C181.172 53.7589 181.11 53.7105 181.058 53.6512C181.007 53.5918 180.968 53.5227 180.944 53.448C180.921 53.3732 180.912 53.2945 180.92 53.2164C180.927 53.1383 180.95 53.0626 180.988 52.9937C181.025 52.9248 181.076 52.8643 181.138 52.8156Z" fill="#E3D8FB"/>
<path d="M114.213 34.7575C114.344 34.6439 114.507 34.5719 114.679 34.5505C114.852 34.5292 115.027 34.5594 115.182 34.6375C115.338 34.7156 115.466 34.838 115.552 34.9893C115.638 35.1405 115.677 35.3137 115.664 35.487C115.651 35.6604 115.587 35.8261 115.48 35.9631C115.373 36.1001 115.228 36.2023 115.063 36.2568C114.898 36.3114 114.72 36.3157 114.553 36.2693C114.385 36.2229 114.235 36.1279 114.121 35.9962C113.969 35.8198 113.893 35.5903 113.911 35.358C113.928 35.1257 114.036 34.9097 114.213 34.7575Z" fill="#F5E5BC"/>
<path d="M167.942 166.811H7.57056V167.891H167.942V166.811Z" fill="#1880BB"/>
</g>
<defs>
<clipPath id="clip0_22_324">
<rect width="185" height="173" fill="white"/>
</clipPath>
</defs>
</svg>
