<svg width="18" height="19" viewBox="0 0 18 19" fill="none" xmlns="http://www.w3.org/2000/svg">
<path d="M4.21875 9.77302C4.21875 8.88121 4.46446 8.04579 4.89132 7.33047V4.2962H1.85706C0.652781 5.86023 0 7.76637 0 9.77302C0 11.7797 0.652781 13.6858 1.85706 15.2498H4.89132V12.2156C4.46446 11.5002 4.21875 10.6648 4.21875 9.77302Z" fill="#FBBD00"/>
<path d="M9 14.5543L6.89062 16.6637L9 18.773C11.0067 18.773 12.9128 18.1203 14.4768 16.916V13.8849H11.4458C10.7242 14.3134 9.88527 14.5543 9 14.5543Z" fill="#0F9D58"/>
<path d="M4.89144 12.2156L1.85718 15.2498C2.09561 15.5595 2.35524 15.856 2.63617 16.137C4.33605 17.8368 6.59614 18.773 9.00012 18.773V14.5543C7.25553 14.5543 5.72647 13.6149 4.89144 12.2156Z" fill="#31AA52"/>
<path d="M18 9.77303C18 9.22547 17.9504 8.6769 17.8526 8.14259L17.7735 7.71021H9V11.929H13.2698C12.8552 12.7538 12.2176 13.4267 11.4457 13.885L14.4768 16.916C14.7864 16.6776 15.083 16.418 15.3639 16.137C17.0638 14.4371 18 12.177 18 9.77303Z" fill="#3C79E6"/>
<path d="M12.3809 6.39214L12.7537 6.76501L15.7369 3.78193L15.364 3.40906C13.6641 1.70919 11.404 0.77301 9 0.77301L6.89062 2.88239L9 4.99176C10.2771 4.99176 11.4778 5.48908 12.3809 6.39214Z" fill="#CF2D48"/>
<path d="M8.99991 4.99176V0.77301C6.59593 0.77301 4.33584 1.70919 2.63593 3.40903C2.35499 3.68996 2.09536 3.9865 1.85693 4.29619L4.8912 7.33046C5.72627 5.93114 7.25532 4.99176 8.99991 4.99176Z" fill="#EB4132"/>
</svg>
